<?xml version="1.0" encoding="UTF-8"?> <svg xmlns="http://www.w3.org/2000/svg" width="30" height="29" viewBox="0 0 30 29" fill="none"><g id="Layer_1" clip-path="url(#clip0_37_11)"><path id="Vector" d="M4.37613 0C2.09109 0 0.233276 1.85781 0.233276 4.14286V24.8571C0.233276 27.1422 2.09109 29 4.37613 29H10.7328V19.5621H7.31497V14.5H10.7328V12.3185C10.7328 6.68036 13.2833 4.06518 18.8243 4.06518C19.873 4.06518 21.6855 4.27232 22.4299 4.47946V9.0625C22.0415 9.02366 21.3618 8.99777 20.5139 8.99777C17.7951 8.99777 16.7464 10.027 16.7464 12.7004V14.5H22.1581L21.2259 19.5621H16.74V29H25.0904C27.3755 29 29.2333 27.1422 29.2333 24.8571V4.14286C29.2333 1.85781 27.3755 0 25.0904 0H4.37613Z" fill="#444444"></path></g><defs><clipPath id="clip0_37_11"><rect width="29" height="29" fill="white" transform="translate(0.233276)"></rect></clipPath></defs></svg> 