<?xml version="1.0" encoding="UTF-8"?> <svg xmlns="http://www.w3.org/2000/svg" width="25" height="25" viewBox="0 0 25 25" fill="none"><g clip-path="url(#clip0_166_352)"><mask id="mask0_166_352" style="mask-type:luminance" maskUnits="userSpaceOnUse" x="0" y="0" width="24" height="25"><path d="M24 0.0297852H0V24.0298H24V0.0297852Z" fill="white"></path></mask><g mask="url(#mask0_166_352)"><path d="M19.5 22.8298L13.56 16.8898L16.89 13.5598L17.33 13.9998L15.8 15.5398L16.51 16.2498L18.04 14.7098L19.33 15.9998L17.8 17.5398L18.51 18.2498L20.04 16.7098L21.33 17.9998L19.8 19.5398L20.51 20.2498L22.04 18.7098L22.83 19.4998L19.5 22.8298ZM2.98 19.7298L4.3 21.0498L2.45 21.5798L2.98 19.7298ZM1.21 4.52982L4.53 1.20982L5.32 1.99982L3.79 3.53982L4.5 4.24982L6.03 2.70982L7.32 3.99982L5.79 5.53982L6.5 6.24982L8.03 4.70982L9.32 5.99982L7.79 7.53982L8.5 8.24982L10.03 6.70982L10.47 7.14982L7.14 10.4798L1.21 4.52982ZM19.47 2.02982C20.15 2.02982 20.78 2.28982 21.27 2.76982C22.25 3.75982 22.25 5.36982 21.27 6.35982L21.16 6.46982L17.57 2.87982L17.68 2.76982C18.16 2.28982 18.8 2.02982 19.47 2.02982ZM7.01 17.7298L17.5 7.23982L18.94 8.67982L8.05 19.5698C7.46 19.1498 7.07 18.4698 7.01 17.7298ZM4.4 17.3298C4.88 17.6998 5.44 17.9198 6.03 17.9998C6.11 18.5898 6.33 19.1498 6.7 19.6298C6.86 19.8398 7.04 20.0398 7.24 20.1998L5.4 20.7198L3.3 18.6198L3.82 16.7798C3.99 16.9798 4.18 17.1598 4.39 17.3198L4.4 17.3298ZM16.79 6.52982L6.3 17.0298C5.56 16.9698 4.89 16.5798 4.46 15.9798L15.35 5.08982L16.8 6.52982H16.79ZM16.06 4.37982L16.85 3.58982L20.44 7.17982L19.65 7.96982L16.06 4.37982ZM23.89 19.1398L17.6 12.8498L22.68 7.76982C24.45 5.99982 24.45 3.11982 22.68 1.34982C21.82 0.499824 20.69 0.0298242 19.47 0.0298242C18.25 0.0298242 17.12 0.499824 16.27 1.35982L11.19 6.43982L4.89 0.149824C4.7 -0.0401758 4.38 -0.0401758 4.19 0.149824L0.15 4.17982C-0.05 4.36982 -0.05 4.69982 0.15 4.88982L6.44 11.1798L2.3 15.3298C2.18 15.4498 2.09 15.5998 2.05 15.7598L0.04 22.7598C-0.06 23.1098 0.04 23.4898 0.29 23.7398C0.48 23.9298 0.74 24.0398 0.99 24.0398C1.08 24.0398 1.17 24.0298 1.27 23.9998L8.27 21.9998C8.43 21.9498 8.58 21.8698 8.7 21.7498L12.85 17.5998L19.14 23.8898C19.24 23.9898 19.36 24.0398 19.49 24.0398C19.62 24.0398 19.75 23.9898 19.84 23.8898L23.87 19.8498C24.07 19.6598 24.07 19.3398 23.87 19.1398H23.89Z" fill="#444444"></path></g></g><defs><clipPath id="clip0_166_352"><rect width="24.04" height="24.04" fill="white"></rect></clipPath></defs></svg> 