<?xml version="1.0" encoding="UTF-8"?> <svg xmlns="http://www.w3.org/2000/svg" width="29" height="24" viewBox="0 0 29 24" fill="none"><g clip-path="url(#clip0_166_359)"><path d="M25.3146 20.4C25.0367 19.032 23.8163 18 22.3542 18C20.8921 18 19.6717 19.032 19.3937 20.4H18.125V9.6H22.2092L22.8133 10.8H19.9375C19.6112 10.8 19.3333 11.076 19.3333 11.4V13.8C19.3333 14.124 19.6112 14.4 19.9375 14.4H25.085L26.5833 15.144V16.8H25.375V18H26.5833V20.4H25.3146ZM22.3542 22.8C21.3513 22.8 20.5417 21.996 20.5417 21C20.5417 20.004 21.3513 19.2 22.3542 19.2C23.3571 19.2 24.1667 20.004 24.1667 21C24.1667 21.996 23.3571 22.8 22.3542 22.8ZM24.0217 13.2H20.5417V12H23.4175L24.0217 13.2ZM15.7083 20.4H9.60625C9.32833 19.032 8.10792 18 6.64583 18C5.18375 18 3.96333 19.032 3.68542 20.4H2.41667V13.428C3.83042 14.772 5.75167 15.6 7.85417 15.6C12.1921 15.6 15.7083 12.096 15.7083 7.8C15.7083 7.596 15.7083 7.392 15.6842 7.2H15.7083V20.4ZM6.64583 22.8C5.64292 22.8 4.83333 21.996 4.83333 21C4.83333 20.004 5.64292 19.2 6.64583 19.2C7.64875 19.2 8.45833 20.004 8.45833 21C8.45833 21.996 7.64875 22.8 6.64583 22.8ZM7.85417 1.2C11.5154 1.2 14.5 4.164 14.5 7.8C14.5 11.436 11.5154 14.4 7.85417 14.4C4.19292 14.4 1.20833 11.436 1.20833 7.8C1.20833 4.164 4.19292 1.2 7.85417 1.2ZM27.6588 12.996L26.2692 12.312L24.3721 8.532C23.9613 7.716 23.1396 7.212 22.2213 7.212H18.1371C18.1371 5.88 17.0496 4.812 15.7204 4.812H15.1163C13.92 1.98 11.1167 0 7.85417 0C3.51625 0 0 3.492 0 7.8V20.4C0 21.72 1.0875 22.8 2.41667 22.8H4.22917C4.785 23.52 5.655 24 6.64583 24C7.63667 24 8.50667 23.52 9.0625 22.8H19.9375C20.4933 23.52 21.3633 24 22.3542 24C23.345 24 24.215 23.52 24.7708 22.8H26.5833C27.9125 22.8 29 21.72 29 20.4V15.144C29 14.244 28.4804 13.404 27.6588 13.008V12.996Z" fill="#444444"></path><path d="M8.20458 10.1998L9.0625 11.0518L11.9021 8.23178C12.1317 8.00378 12.1317 7.61978 11.9021 7.39178L9.0625 4.57178L8.20458 5.42378L10.0171 7.22378H3.625V8.42378H10.0171L8.20458 10.2238V10.1998Z" fill="#444444"></path></g><defs><clipPath id="clip0_166_359"><rect width="29" height="24" fill="white"></rect></clipPath></defs></svg> 