<?xml version="1.0" encoding="UTF-8"?> <svg xmlns="http://www.w3.org/2000/svg" style="max-height: 500px" viewBox="782.4400555832037 0 28.441119751166408 30.11481553398058" fill="none" width="28.441119751166408" height="30.11481553398058"><rect y="43.2002" width="1640" height="463" fill="#DFDFDF" fill-opacity="0.17"></rect><path d="M800.993 19.8716C802.48 19.0877 804.226 19.1354 805.612 19.3823C806.998 19.6294 808.039 20.079 808.129 20.1187L808.262 20.1772L808.25 20.188C808.518 20.3684 808.653 20.702 808.58 21.0278V21.0288C808.559 21.1175 808.311 22.167 807.695 23.3794C807.08 24.5903 806.091 25.9762 804.585 26.7212C803.699 27.1606 802.672 27.3179 801.67 27.3179C800.097 27.3178 798.574 26.9274 797.729 26.603C797.364 26.463 797.157 26.0713 797.244 25.686C797.264 25.5942 797.512 24.5073 798.097 23.2622C798.681 22.0195 799.608 20.6018 800.993 19.8716ZM804.572 20.8423C803.61 20.7525 802.576 20.8264 801.712 21.2817C800.931 21.6939 800.321 22.4541 799.862 23.2573C799.431 24.0116 799.141 24.7946 798.967 25.3374C799.58 25.5074 800.409 25.6795 801.274 25.7231C802.189 25.7692 803.133 25.6728 803.902 25.2925L803.966 25.2603C804.799 24.8272 805.439 24.0981 805.916 23.3394C806.374 22.6082 806.676 21.8564 806.854 21.3364C806.308 21.156 805.477 20.9268 804.572 20.8423Z" fill="#444444" stroke="#444444" stroke-width="0.2"></path><path d="M787.388 19.3828C788.773 19.1359 790.519 19.0877 792.005 19.8701H792.006C793.391 20.6004 794.318 22.018 794.901 23.2607C795.486 24.5054 795.734 25.592 795.755 25.6846C795.841 26.0698 795.635 26.4615 795.27 26.6016C794.425 26.926 792.901 27.3164 791.328 27.3164C790.327 27.3164 789.3 27.1592 788.413 26.7197C786.907 25.9748 785.919 24.5889 785.304 23.3779C784.842 22.4687 784.587 21.6511 784.479 21.2617L784.419 21.0273C784.334 20.655 784.522 20.2717 784.87 20.1191H784.871C784.959 20.0809 786 19.6302 787.388 19.3828ZM791.287 21.2803C790.424 20.825 789.39 20.7511 788.429 20.8408C787.524 20.9253 786.692 21.1545 786.146 21.335C786.324 21.8551 786.626 22.6074 787.085 23.3389C787.561 24.098 788.201 24.8275 789.035 25.2598L789.099 25.291C789.867 25.6713 790.812 25.7685 791.727 25.7227C792.592 25.6793 793.421 25.5065 794.032 25.3359C793.858 24.7931 793.567 24.01 793.137 23.2559C792.678 22.4526 792.068 21.6923 791.287 21.2803Z" fill="#444444" stroke="#444444" stroke-width="0.2"></path><path d="M796.518 0.100586C801.964 0.100586 806.389 4.60915 806.389 10.1494C806.389 15.4272 802.371 19.7646 797.282 20.1631V28.5059C797.282 28.9435 796.934 29.2998 796.5 29.2998C796.066 29.2996 795.718 28.9433 795.718 28.5059V20.1611C790.648 19.7475 786.647 15.6556 786.647 10.1494C786.647 4.60915 791.073 0.100591 796.518 0.100586ZM796.518 13.3828C795.552 13.3828 794.614 13.5379 793.726 13.8311C794.006 15.2995 794.441 16.4936 794.939 17.3223C795.452 18.1746 796.012 18.6103 796.518 18.6104C797.025 18.6104 797.585 18.1746 798.097 17.3223C798.596 16.4937 799.029 15.2994 799.309 13.8311C798.422 13.5381 797.484 13.3828 796.518 13.3828ZM800.78 14.4736C800.482 15.8872 800.038 17.1059 799.483 18.0518C800.703 17.5743 801.785 16.8128 802.651 15.8467C802.08 15.3022 801.452 14.8435 800.78 14.4736ZM792.254 14.4736C791.582 14.8423 790.953 15.301 790.382 15.8457C791.248 16.8128 792.33 17.5735 793.549 18.0498C792.994 17.1042 792.551 15.8861 792.254 14.4736ZM803.592 5.72656C802.828 6.4292 801.969 7.01019 801.047 7.45605C801.149 8.30811 801.206 9.2108 801.206 10.1514C801.206 11.0915 801.149 11.9921 801.047 12.8438C801.969 13.2895 802.828 13.8707 803.592 14.5732C804.371 13.2843 804.825 11.7728 804.825 10.1514C804.825 8.52908 804.372 7.0146 803.592 5.72656ZM789.443 5.72754C788.664 7.01527 788.212 8.52922 788.212 10.1494C788.212 11.7698 788.664 13.2844 789.443 14.5723C790.208 13.8697 791.066 13.2887 791.989 12.8428C791.886 11.9907 791.831 11.0853 791.831 10.1494C791.831 9.21326 791.887 8.31661 791.988 7.46777C791.07 7.02308 790.214 6.43952 789.443 5.72754ZM799.538 8.04785C798.567 8.34463 797.56 8.50391 796.518 8.50391C795.476 8.50391 794.463 8.34882 793.496 8.05762C793.43 8.71935 793.393 9.41788 793.393 10.1494C793.393 10.8843 793.432 11.5862 793.498 12.249C794.471 11.9521 795.489 11.7939 796.518 11.7939C797.548 11.7939 798.565 11.953 799.539 12.25C799.606 11.5868 799.643 10.8853 799.643 10.1494C799.643 9.41383 799.604 8.71129 799.538 8.04785ZM796.518 1.68848C796.012 1.68848 795.452 2.12451 794.939 2.97656C794.441 3.80483 794.006 4.9985 793.726 6.46582C794.614 6.75906 795.552 6.91504 796.518 6.91504C797.484 6.91504 798.421 6.75887 799.309 6.46582C799.029 4.99858 798.595 3.8048 798.097 2.97656C797.585 2.12451 797.025 1.68848 796.518 1.68848ZM793.551 2.24902C792.332 2.72636 791.25 3.48621 790.384 4.45312C790.955 4.99755 791.584 5.45433 792.255 5.82422C792.553 4.41209 792.997 3.19431 793.551 2.24902ZM799.484 2.24902C800.04 3.19442 800.483 4.412 800.78 5.82422C801.452 5.45557 802.08 4.9977 802.651 4.45312C801.785 3.48612 800.704 2.72517 799.484 2.24902Z" fill="#444444" stroke="#444444" stroke-width="0.2"></path></svg> 