<?xml version="1.0" encoding="UTF-8"?> <svg xmlns="http://www.w3.org/2000/svg" width="157" height="157" viewBox="0 0 157 157" fill="none" style="background-color:transparent;"><rect width="157" height="157" fill="none"></rect><g clip-path="url(#clip0_0_1)"><rect width="1640" height="4757" transform="translate(-100)" fill="none"></rect><rect x="-100" width="1640" height="129" fill="#E5E5E5"></rect><g clip-path="url(#clip1_0_1)"><path d="M0 0V157H135.492C147.374 157 157 147.374 157 135.492V0H0Z" fill="#5E6A71"></path><path d="M22.8662 120.831H28.4429C29.7128 120.831 30.2189 121.338 30.2189 122.607V123.877C30.2189 125.396 29.7128 125.653 28.4429 125.653H22.8662V120.84V120.831ZM19.8292 128.69H29.2066C32.2525 128.69 33.5134 127.678 33.5134 125.138V121.844C33.5134 119.313 32.5011 118.292 29.2066 118.292H19.8292V128.681V128.69Z" fill="white"></path><path d="M35.5382 124.89C35.5382 127.42 36.808 128.69 39.845 128.69H44.4094C47.1977 128.69 48.7162 127.42 48.7162 124.89V118.301H45.1642V124.383C45.1642 125.653 44.658 126.159 43.3882 126.159H40.3423C39.0725 126.159 38.5663 125.653 38.5663 124.383V118.549H35.5293V124.89H35.5382Z" fill="white"></path><path d="M50.4922 128.69H53.5381V126.151H58.3511C59.3634 126.151 59.6209 126.408 59.6209 127.669V128.939H62.9154V126.914C62.9154 125.138 62.1517 124.89 61.1394 124.632C62.6579 124.375 62.9154 123.362 62.9154 122.092V121.329C62.9154 119.553 62.1517 118.292 59.8784 118.292H50.5011V128.681L50.4922 128.69ZM53.5381 120.831H58.3511C59.3634 120.831 59.8696 121.089 59.8696 121.844V122.092C59.8696 122.856 59.612 123.105 58.5997 123.105H53.5292V120.823L53.5381 120.831Z" fill="white"></path><path d="M71.7867 120.831L73.8113 124.632H69.7531L71.7778 120.831H71.7867ZM64.1853 128.69H67.7373L68.7497 126.914H75.0901L76.1024 128.69H79.6544L74.0777 118.549H70.0195L64.1942 128.69H64.1853Z" fill="white"></path><path d="M82.1763 128.69H85.7284L88.0106 121.844L90.5414 128.69H94.0934L97.3879 118.301H94.3421L92.3174 125.902H92.0599L89.5291 118.301H86.7407L83.9524 125.902L81.9277 118.301H78.8818L82.1763 128.69Z" fill="white"></path><path d="M98.6489 128.69H110.06V126.159H101.695V124.383H109.296V122.35H101.695V120.831H109.802V118.301H98.6489V128.69Z" fill="white"></path><path d="M111.836 128.69H122.226V125.902H115.13V118.301H111.836V128.69Z" fill="white"></path><path d="M126.79 120.831H132.367C133.636 120.831 134.143 121.338 134.143 122.607V123.877C134.143 125.396 133.636 125.653 132.367 125.653H126.79V120.84V120.831ZM123.495 128.69H132.873C135.919 128.69 137.18 127.678 137.18 125.138V121.844C137.18 119.313 136.167 118.292 132.873 118.292H123.495V128.681V128.69Z" fill="white"></path><path d="M20.3265 28.0611C65.1888 65.5795 117.91 61.2637 136.922 61.2637V80.5247C116.391 80.5247 67.2134 86.3589 20.3265 50.6165V28.0611Z" fill="#C2D831"></path><path d="M20.3265 92.9479C20.3265 89.6534 22.8574 87.1226 26.1519 87.1226H136.922V103.346C136.922 106.641 134.391 109.181 131.088 109.181H26.1608C22.8662 109.181 20.3354 106.65 20.3354 103.346V92.9568L20.3265 92.9479Z" fill="white"></path></g></g></svg> 