<?xml version="1.0" encoding="UTF-8"?> <svg xmlns="http://www.w3.org/2000/svg" width="249" height="78" viewBox="0 0 249 78" fill="none"><mask id="mask0_168_795" style="mask-type:luminance" maskUnits="userSpaceOnUse" x="0" y="0" width="69" height="78"><path d="M30.6114 76.2589L2.43822 56.5816C0.892246 55.5027 -0.0138517 53.7839 0.000160158 51.9577L0.205667 25.2791C0.219678 23.4903 1.11644 21.8135 2.62971 20.7533L30.5833 1.10869C32.6898 -0.371897 35.5575 -0.367226 37.664 1.10869L65.6316 20.772C67.1543 21.8415 68.051 23.5323 68.051 25.3352L68.0837 51.8082C68.0837 53.6017 67.1963 55.2925 65.683 56.3667L37.6967 76.2309C35.5949 77.7208 32.7225 77.7301 30.6067 76.2589H30.6114Z" fill="white"></path></mask><g mask="url(#mask0_168_795)"><mask id="mask1_168_795" style="mask-type:luminance" maskUnits="userSpaceOnUse" x="0" y="-2" width="69" height="73"><path d="M68.0883 22.4487L34.1236 -1.37607L0.224243 22.4394L32.1012 45.0639V69.2296L33.3996 70.2151C33.8293 70.5421 34.4365 70.5467 34.8755 70.2291L36.244 69.2296V45.0498L63.9081 25.4146V49.244L68.0509 52.0885V22.4721L68.0883 22.4441V22.4487ZM34.1469 41.6263L7.14142 22.5048L33.3949 4.06053C33.8433 3.7476 34.4505 3.7476 34.8989 4.06053L61.1197 22.4814L34.1469 41.631V41.6263Z" fill="white"></path></mask><g mask="url(#mask1_168_795)"><path d="M46.9117 15.2653C46.9117 26.8765 37.5004 36.2878 25.8893 36.2878C14.2781 36.2878 4.86682 26.8718 4.86682 15.2653C4.86682 3.65886 14.2781 -5.7571 25.8893 -5.7571C37.5004 -5.7571 46.9117 3.65419 46.9117 15.2653Z" fill="#FFC60B"></path><path d="M32.7317 26.671C32.7317 38.2821 23.3204 47.6934 11.7093 47.6934C0.0981445 47.6934 -9.30847 38.2775 -9.30847 26.671C-9.30847 15.0645 0.0981445 5.64854 11.7093 5.64854C23.3204 5.64854 32.7317 15.0598 32.7317 26.671Z" fill="#FDB51E"></path><path d="M37.5191 -8.10175C33.9508 -8.10175 30.5832 -7.22834 27.6221 -5.68237C38.4205 -4.80429 46.9117 4.24269 46.9117 15.27C46.9117 16.5404 46.7996 17.7828 46.5848 18.9878C49.9336 16.7366 53.9643 15.4241 58.2987 15.4241C58.4808 15.4241 58.6677 15.4241 58.8498 15.4335C58.9152 14.7422 58.9526 14.0463 58.9526 13.3364C58.9526 1.50104 49.3544 -8.09708 37.5191 -8.09708" fill="#EF4136"></path><path d="M27.6174 -5.68704C22.7786 -3.16491 19.0235 1.15541 17.2346 6.38183C26.1648 8.81055 32.727 16.9701 32.727 26.6663C32.727 27.0727 32.7177 27.4743 32.6944 27.8713C34.586 28.9689 36.2907 30.3561 37.7526 31.9675C38.9203 26.5776 42.1523 21.9583 46.5801 18.9785C46.7949 17.7735 46.907 16.5311 46.907 15.2607C46.907 4.23335 38.4159 -4.80897 27.6174 -5.69171" fill="#FAA41A"></path><path d="M17.2347 6.38183C16.4874 8.55833 16.0857 10.8983 16.0857 13.327C16.0857 17.7127 17.4028 21.7949 19.6681 25.1904C20.4854 25.0923 21.3215 25.0456 22.1622 25.0456C26.0014 25.0456 29.6025 26.0731 32.6991 27.8713C32.7224 27.4743 32.7318 27.0727 32.7318 26.6663C32.7318 16.9701 26.1649 8.80588 17.2393 6.38183" fill="#F68620"></path><path d="M58.8498 15.4241C57.869 25.522 49.8823 33.5695 39.8077 34.639C41.9422 37.9272 43.1799 41.8505 43.1799 46.068C43.1799 47.6 43.0165 49.0946 42.7035 50.5378C46.5521 54.7881 52.1101 57.4597 58.294 57.4597C69.9052 57.4597 79.3165 48.0484 79.3165 36.4372C79.3165 24.8261 70.1994 15.7137 58.8452 15.4241" fill="#ED1B50"></path><path d="M58.2986 15.4195C53.9596 15.4195 49.9289 16.7319 46.5847 18.9832C45.6039 24.4851 42.4792 29.2445 38.1075 32.3738C38.7241 33.0884 39.2939 33.8497 39.8076 34.6437C49.8775 33.5742 57.8689 25.5267 58.8497 15.4288C58.6676 15.4288 58.4854 15.4195 58.2986 15.4195Z" fill="#F1626C"></path><path d="M46.58 18.9831C42.1523 21.963 38.9155 26.5822 37.7526 31.9721C37.874 32.1029 37.9908 32.2384 38.1075 32.3738C42.4792 29.2492 45.5992 24.4851 46.5847 18.9831" fill="#F9A76D"></path><path d="M1.17234 44.863C1.14899 45.26 1.13965 45.6617 1.13965 46.0681C1.13965 48.3847 1.5133 50.6126 2.20455 52.6957C2.92849 50.5191 3.99339 48.5061 5.3432 46.7079C3.87663 46.2409 2.48011 45.6197 1.17234 44.863ZM34.3197 34.527C33.1567 35.0361 31.9377 35.4424 30.6766 35.7366C30.0741 36.993 29.3548 38.1794 28.5235 39.2816C34.9269 41.3134 39.9992 46.3296 42.1103 52.6957C42.3438 51.9904 42.54 51.2711 42.6988 50.5378C39.3266 46.8107 37.2715 41.8645 37.2715 36.4419C37.2715 35.8768 37.2949 35.3163 37.3369 34.7652C36.3094 34.7558 35.3005 34.6764 34.315 34.527" fill="#ED1B50"></path><path d="M31.4566 33.8917C31.2277 34.5223 30.9662 35.1388 30.6813 35.7366C31.9423 35.4424 33.1614 35.036 34.3244 34.5269C33.3435 34.3822 32.3907 34.1673 31.4566 33.8964" fill="#FEC876"></path><path d="M19.6633 25.1951C9.6215 26.3814 1.75152 34.6484 1.17236 44.863C2.48014 45.6197 3.87665 46.2409 5.34322 46.7079C9.1778 41.6029 15.2823 38.3008 22.1621 38.3008C24.3806 38.3008 26.5198 38.6464 28.5282 39.2816C29.3549 38.1794 30.0788 36.993 30.6813 35.7366C30.9662 35.1388 31.2278 34.5223 31.4566 33.8918C26.5758 32.4579 22.419 29.3286 19.668 25.1951" fill="#F79A6C"></path><path d="M37.6031 32.7194C36.5709 33.4153 35.4733 34.0179 34.3197 34.527C35.3052 34.6764 36.3141 34.7558 37.3416 34.7651C37.3976 34.0739 37.4817 33.392 37.6031 32.7241" fill="#EF435E"></path><path d="M32.6944 27.876C32.5776 29.9778 32.1479 32.0002 31.4567 33.8964C32.3861 34.172 33.3436 34.3822 34.3244 34.527C35.4781 34.0225 36.5757 33.4153 37.6079 32.7194C37.6546 32.4672 37.7013 32.2197 37.7573 31.9721C36.3001 30.3608 34.5953 28.9736 32.6991 27.876" fill="#F9A76D"></path><path d="M22.1622 25.0456C21.3168 25.0456 20.4854 25.097 19.6681 25.1904C22.4238 29.3286 26.5806 32.4532 31.4567 33.8871C32.148 31.9955 32.5777 29.9731 32.6944 27.8667C29.5978 26.0685 25.9968 25.0409 22.1575 25.0409" fill="#F58965"></path><path d="M39.8077 34.639C39.0557 34.7184 38.2897 34.7605 37.5191 34.7605H37.3463C37.3042 35.3163 37.2809 35.8721 37.2809 36.4372C37.2809 41.8598 39.336 46.806 42.7081 50.5331C43.0211 49.0946 43.1845 47.6 43.1845 46.0634C43.1845 41.8505 41.9468 37.9272 39.8124 34.6344" fill="#ED1B67"></path><path d="M38.1076 32.3738C37.9442 32.4906 37.776 32.6073 37.6079 32.7241C37.4864 33.392 37.4024 34.0739 37.3463 34.7652H37.5191C38.2945 34.7652 39.0558 34.7231 39.8077 34.6437C39.294 33.8497 38.7241 33.0884 38.1076 32.3738Z" fill="#EF4474"></path><path d="M37.7526 31.9721C37.6966 32.2197 37.6499 32.4719 37.6031 32.7194C37.7713 32.6073 37.9394 32.4906 38.1029 32.3691C37.9861 32.2337 37.8694 32.0982 37.7479 31.9675" fill="#F8A992"></path><path d="M42.115 52.6956C39.3407 61.056 31.452 67.0905 22.1622 67.0905C12.8723 67.0905 4.98366 61.0607 2.20931 52.6956C1.51806 54.7787 1.14441 57.0066 1.14441 59.3233C1.14441 70.9344 10.5557 80.3457 22.1668 80.3457C33.778 80.3457 43.1893 70.9344 43.1893 59.3233C43.1893 57.0066 42.8156 54.7787 42.1244 52.6956" fill="#B72954"></path><path d="M28.5282 39.2816C24.6936 44.3866 18.5891 47.6888 11.7093 47.6888C9.49075 47.6888 7.35161 47.3431 5.34324 46.7079C3.99344 48.5014 2.92854 50.5191 2.20459 52.6957C4.97894 61.0561 12.8676 67.0905 22.1575 67.0905C31.4473 67.0905 39.336 61.0607 42.1103 52.6957C39.9992 46.3296 34.9222 41.3134 28.5235 39.2816" fill="#ED1B67"></path><path d="M22.1621 38.3008C15.287 38.3008 9.17784 41.6029 5.34326 46.7079C7.35163 47.3431 9.49077 47.6887 11.7093 47.6887C18.5845 47.6887 24.6936 44.3866 28.5282 39.2816C26.5198 38.6464 24.3807 38.3008 22.1621 38.3008Z" fill="#F15D5C"></path></g><mask id="mask2_168_795" style="mask-type:luminance" maskUnits="userSpaceOnUse" x="-1" y="6" width="70" height="73"><path d="M40.0319 35.0033L36.4542 37.3994L34.0956 35.746L31.9097 37.3386L28.3414 34.952L32.0311 32.3084V8.17533L33.5958 7.0357C33.9181 6.80217 34.3665 6.80684 34.6794 7.04504L36.1693 8.17533V32.3037L40.0272 35.0033H40.0319ZM47.4442 40.3419L43.8665 42.7379L60.3211 54.1435C60.7181 54.4191 60.7181 54.9796 60.3211 55.2551L35.6322 72.7793C34.7448 73.4098 33.5304 73.4145 32.6383 72.7933L6.97797 54.8908L24.3994 42.8219L20.831 40.4353L4.10087 52.0698L3.9841 28.5672L-0.0279541 25.7882V54.8628H0.0841397L0.00474006 54.9188L34.1609 78.7436L68.0836 54.662L47.4395 40.3372L47.4442 40.3419Z" fill="white"></path></mask><g mask="url(#mask2_168_795)"><path d="M32.5822 60.8692C24.8383 52.2192 25.5716 38.9313 34.2216 31.1875C42.8716 23.4436 56.1595 24.1769 63.9034 32.8268C71.6472 41.4768 70.914 54.7647 62.264 62.5086C53.614 70.2525 40.3261 69.5192 32.5822 60.8692Z" fill="#43BB92"></path><path d="M-2.12056 52.9805C-11.0695 42.9808 -10.2194 27.6191 -0.224287 18.6702C9.7755 9.72131 25.1325 10.5667 34.086 20.5665C43.0396 30.5663 42.1896 45.9232 32.1898 54.8768C22.19 63.8257 6.83301 62.9803 -2.12056 52.9805Z" fill="#92278F"></path><path d="M33.5537 26.9932C45.1641 26.9932 54.5761 17.5812 54.5761 5.97081C54.5761 -5.63956 45.1641 -15.0516 33.5537 -15.0516C21.9433 -15.0516 12.5312 -5.63956 12.5312 5.97081C12.5312 17.5812 21.9433 26.9932 33.5537 26.9932Z" fill="#662D91"></path><path d="M33.5537 16.7412C45.1641 16.7412 54.5761 7.32918 54.5761 -4.28119C54.5761 -15.8916 45.1641 -25.3036 33.5537 -25.3036C21.9433 -25.3036 12.5312 -15.8916 12.5312 -4.28119C12.5312 7.32918 21.9433 16.7412 33.5537 16.7412Z" fill="#492061"></path><path d="M30.4198 58.0015C29.4062 61.8454 27.2951 65.4464 24.1144 68.2955C21.653 70.5 18.818 72.0133 15.8428 72.8587C15.8615 77.8236 17.6269 82.8024 21.2 86.7958C25.3521 91.4337 31.097 93.7971 36.8699 93.7971C41.8628 93.7971 46.8743 92.0269 50.8817 88.4399C57.3365 82.6576 59.3822 73.7881 56.7854 66.0676C54.0671 67.2773 51.1526 67.8751 48.2475 67.8751C42.4746 67.8751 36.7298 65.5118 32.5776 60.8739C31.7649 59.9631 31.041 59.0056 30.4151 58.0015" fill="#1FB8D4"></path><path d="M36.8558 51.7522C36.2579 51.7522 35.6554 51.7755 35.0576 51.8269C34.2029 52.9058 33.2501 53.924 32.1898 54.8721C31.7508 55.2645 31.3024 55.6381 30.8447 55.9931C30.7373 56.6657 30.5925 57.3336 30.4197 57.9968C31.0455 58.9963 31.7695 59.9584 32.5822 60.8692C36.7343 65.5071 42.4792 67.8705 48.2521 67.8705C51.1572 67.8705 54.0717 67.2726 56.79 66.0629C55.9072 63.4381 54.4874 60.9486 52.5257 58.7534C48.3735 54.1155 42.6287 51.7522 36.8558 51.7522Z" fill="#80C570"></path><path d="M35.0576 51.8316C33.7312 51.9437 32.4094 52.1865 31.1156 52.5508C31.1156 53.7045 31.0316 54.8581 30.8447 55.9978C31.3024 55.6428 31.7508 55.2691 32.1899 54.8768C33.2501 53.9287 34.2029 52.9105 35.0576 51.8316Z" fill="#F68620"></path><path d="M-10.565 48.7537C-11.7233 54.9516 -10.098 61.5978 -5.56746 66.6561C-1.41528 71.294 4.32958 73.6574 10.1025 73.6574C12.0314 73.6574 13.9651 73.3911 15.8426 72.8587C15.8286 68.6271 17.085 64.4002 19.5745 60.8038C18.3881 60.9813 17.1878 61.0701 15.9921 61.0701C9.32246 61.0701 2.68085 58.3378 -2.12054 52.9806C-3.00329 51.9951 -3.78795 50.9582 -4.48387 49.8793C-6.54829 49.8045 -8.59869 49.4309 -10.5697 48.7537" fill="#30307A"></path><path d="M16.931 32.7521C16.1089 37.1472 13.8811 41.318 10.294 44.5314C6.28197 48.1231 1.2704 49.8933 -3.72249 49.8933C-3.9747 49.8933 -4.22691 49.8933 -4.47913 49.8792C-3.78787 50.9582 -2.99854 51.995 -2.1158 52.9805C2.6856 58.3424 9.32254 61.07 15.9968 61.07C17.1925 61.07 18.3929 60.9813 19.5792 60.8038C20.4993 59.4774 21.5876 58.235 22.844 57.1094C25.3054 54.9048 28.1404 53.3916 31.1203 52.5462C31.1016 47.5813 29.3361 42.6024 25.7584 38.6091C23.2737 35.8347 20.2238 33.8777 16.9356 32.7474" fill="#92278F"></path><path d="M29.7285 56.8105C26.6178 58.9496 23.1382 60.276 19.5746 60.8038C17.0804 64.4002 15.8241 68.6224 15.8427 72.8587C18.8179 72.0133 21.6576 70.5 24.1144 68.2955C27.2951 65.4464 29.4062 61.8454 30.4197 58.0015C30.1769 57.6091 29.9433 57.2121 29.7285 56.8105Z" fill="#0082C6"></path><path d="M30.8448 55.9978C30.4805 56.2827 30.1068 56.5536 29.7285 56.8151C29.9434 57.2168 30.1769 57.6138 30.4198 58.0061C30.5926 57.3429 30.7374 56.675 30.8448 56.0024" fill="#F9A76D"></path><path d="M31.1156 52.5508C28.1404 53.3962 25.3006 54.9095 22.8392 57.114C21.5828 58.2397 20.4946 59.482 19.5745 60.8085C23.1381 60.2807 26.6177 58.9543 29.7284 56.8151C30.1067 56.5536 30.4803 56.2827 30.8447 55.9978C31.0268 54.8581 31.1202 53.7045 31.1156 52.5508Z" fill="#F58965"></path><path d="M-3.73652 7.84839C-8.72941 7.84839 -13.741 9.61855 -17.7484 13.2056C-26.3983 20.9495 -27.1316 34.2374 -19.3878 42.8873C-16.903 45.6617 -13.8531 47.6187 -10.565 48.749C-10.0979 46.2595 -9.18246 43.8448 -7.82331 41.6356C-9.48605 33.4574 -6.88919 24.6393 -0.219547 18.6702C2.8724 15.9052 6.47344 14.0743 10.2426 13.1589C6.28662 9.63724 1.28439 7.84839 -3.73652 7.84839Z" fill="#F47A61"></path><path d="M10.238 13.1589C6.46883 14.0743 2.86779 15.9005 -0.224159 18.6702C-6.88913 24.6393 -9.49066 33.4574 -7.82792 41.6356C-6.78637 39.9402 -5.48794 38.3662 -3.92796 36.9744C0.0841026 33.3827 5.09567 31.6125 10.0839 31.6125C12.4052 31.6125 14.7171 31.9955 16.9263 32.7521C18.0847 26.5542 16.4593 19.9079 11.9288 14.8497C11.3917 14.2471 10.8218 13.682 10.2333 13.1589" fill="#492061"></path><path d="M10.0884 31.6125C5.09555 31.6125 0.0839858 33.3827 -3.9234 36.9744C-5.47872 38.3709 -6.78182 39.9449 -7.82336 41.6356C-7.23954 44.5127 -6.12793 47.3104 -4.4792 49.8746C-4.22699 49.8839 -3.97478 49.8886 -3.72257 49.8886C1.27032 49.8886 6.28189 48.1184 10.2939 44.5267C13.8857 41.3134 16.1089 37.1425 16.9309 32.7474C14.7217 31.9908 12.4051 31.6078 10.0884 31.6078" fill="#662D91"></path><path d="M45.4637 46.5211C41.2601 41.8271 41.6618 34.6157 46.3558 30.4121C51.0497 26.2086 58.2612 26.6102 62.4647 31.3042C66.6683 35.9982 66.2666 43.2096 61.5726 47.4132C56.8787 51.6167 49.6672 51.215 45.4637 46.5211Z" fill="#00A080"></path><path d="M28.5422 108.598C31.9751 106.595 36.0105 105.539 40.2747 105.777C43.5722 105.959 46.6455 106.893 49.3451 108.402C52.8434 104.876 55.1133 100.107 55.4122 94.7592C55.7578 88.5426 53.3711 82.8118 49.2937 78.7296C45.7674 75.1987 40.98 72.9054 35.6041 72.6111C26.9588 72.1347 19.243 76.9595 15.6139 84.255C18.3882 85.3199 20.8683 86.9593 22.9234 89.0097C27.0009 93.0918 29.3875 98.8226 29.0419 105.039C28.9718 106.258 28.8037 107.445 28.5422 108.598Z" fill="#00A7C6"></path></g></g><path d="M105.962 7.08241C110.287 7.08241 114.043 7.96048 116.803 10.2771C119.624 12.5937 121.315 15.667 121.315 20.0527C121.315 24.4384 119.624 27.5724 116.803 29.889C114.047 32.2056 110.287 33.2705 105.962 33.2705H100.26V47.3618H92.0533V7.08241H105.962ZM110.535 25.2511C111.913 24.2469 112.917 22.4954 112.917 20.0527C112.917 17.61 111.726 15.9192 110.348 14.915C108.97 13.9108 107.28 13.4718 104.771 13.4718H100.199V26.8811H104.958C107.462 26.8811 109.157 26.2553 110.535 25.2511Z" fill="#414042"></path><path d="M135.621 17.0402L135.495 21.9256H135.682C136.873 18.6655 139.88 16.475 143.136 16.475C145.205 16.475 146.331 17.0402 146.331 17.0402L145.765 23.9947H145.392C144.514 23.7425 143.136 23.6164 142.071 23.6164C139.689 23.6164 137.872 24.6206 136.746 26.5635C135.994 28.0675 135.621 30.1366 135.621 32.4532V47.3665H127.662V17.0402H135.621Z" fill="#414042"></path><path d="M202.079 23.0559C198.067 23.0559 196.003 26.5028 196.003 31.7012V47.3665H187.983V30.3234C187.983 26.1899 186.918 23.0559 183.093 23.0559C178.959 23.0559 177.143 26.9419 177.143 31.7012V47.3665H169.123V17.0402H177.143L177.077 21.6127H177.264C178.642 18.7916 182.336 16.475 186.288 16.475C190.673 16.475 193.303 18.2312 194.746 22.2385C196.876 18.5441 200.323 16.475 204.709 16.475C212.667 16.475 214.858 22.1124 214.858 29.067V47.3618H206.838V30.3841C206.838 26.6896 206.026 23.0559 202.079 23.0559Z" fill="#414042"></path><path d="M231.859 48.053C225.969 48.053 221.21 44.8583 221.21 38.5297C221.21 32.201 227.412 29.7582 233.676 29.3192L240.943 28.8194V28.0068C240.943 24.1208 238.374 22.3039 234.175 22.3039C229.977 22.3039 226.847 23.8079 225.53 24.8121L223.087 19.6744C225.404 18.2966 229.668 16.4797 234.927 16.4797C240.187 16.4797 243.386 17.8575 245.642 19.9873C247.837 22.1171 248.963 24.8728 248.963 30.0105V47.3665H241.256L241.13 43.8588C239.878 46.0493 236.366 48.0577 231.859 48.0577V48.053ZM229.229 38.2728C229.229 40.8416 231.172 42.5978 234.493 42.5978C237.627 42.5978 239.944 40.7809 241.009 39.277V33.7002L235.558 34.0132C231.298 34.2654 229.229 35.7039 229.229 38.2728Z" fill="#414042"></path><path d="M156.008 16.6105C158.613 16.6105 160.725 14.4984 160.725 11.8931C160.725 9.28784 158.613 7.17582 156.008 7.17582C153.403 7.17582 151.291 9.28784 151.291 11.8931C151.291 14.4984 153.403 16.6105 156.008 16.6105Z" fill="#ED1B50"></path><path d="M151.996 19.964V47.3618H160.015V19.9873L151.996 19.964Z" fill="#414042"></path><path d="M92.2074 56.1145H95.9532C98.4427 56.1145 100.643 57.3475 100.643 60.0892C100.643 63.0177 98.2372 64.0872 95.6823 64.0872H93.7767V70.556H92.2074V56.1145ZM99.0312 60.1125C99.0312 58.3564 97.714 57.455 95.8925 57.455H93.7814V62.7514H95.8131C97.5506 62.7514 99.0358 62.0835 99.0358 60.1125H99.0312Z" fill="#939598"></path><path d="M116.42 66.516H109.825L108.214 70.5561H106.579L112.585 56.0725H113.781L119.806 70.5561H118.027L116.415 66.516H116.42ZM113.132 58.2069L110.367 65.1335H115.869L113.127 58.2069H113.132Z" fill="#939598"></path><path d="M133.454 70.8083C129.161 70.8083 126.167 67.8144 126.167 63.3586C126.167 58.9029 129.39 55.909 133.514 55.909C136.111 55.909 137.765 56.9973 138.685 57.9174L137.891 59.1504C137.242 58.3144 135.569 57.3102 133.556 57.3102C130.166 57.3102 127.779 59.7389 127.779 63.3166C127.779 66.8943 130.226 69.323 133.556 69.323C135.504 69.323 137.008 68.6131 138.017 67.5248L138.811 68.6318C137.849 69.7013 136.13 70.8083 133.454 70.8083Z" fill="#939598"></path><path d="M148.498 70.556H146.928V56.1145H148.498V62.6627L154.817 56.1145H156.807L151.197 61.7846L157.227 70.556H155.279L150.09 62.9149L148.502 64.5263V70.556H148.498Z" fill="#939598"></path><path d="M172.561 66.516H165.966L164.354 70.5561H162.72L168.726 56.0725H169.922L175.947 70.5561H174.167L172.556 66.516H172.561ZM169.273 58.2069L166.508 65.1335H172.01L169.268 58.2069H169.273Z" fill="#939598"></path><path d="M189.973 64.3815V63.041H195.666V68.5243C195.414 68.8373 193.719 70.8036 189.618 70.8036C185.517 70.8036 182.294 67.8331 182.294 63.3306C182.294 58.8281 185.475 55.8997 189.576 55.8997C193.237 55.8997 194.83 57.824 195.372 58.4125L194.302 59.482C193.34 58.3517 191.832 57.2822 189.571 57.2822C186.409 57.2822 183.901 59.5848 183.901 63.3306C183.901 67.0764 186.498 69.3557 189.721 69.3557C192.943 69.3557 194.134 67.9312 194.134 67.9312V64.3722H189.968V64.3815H189.973Z" fill="#939598"></path><path d="M204.447 56.1145H206.016V70.556H204.447V56.1145Z" fill="#939598"></path><path d="M216.773 58.4825C216.773 59.5287 216.791 61.5605 216.791 63.5688V70.5607H215.222V56.1192H216.857L225.708 68.0293V56.1192H227.258V70.5607H225.75L216.773 58.4872V58.4825Z" fill="#939598"></path><path d="M243.306 64.3815V63.041H249V68.5243C248.748 68.8373 247.052 70.8036 242.952 70.8036C238.851 70.8036 235.628 67.8331 235.628 63.3306C235.628 58.8281 238.809 55.8997 242.909 55.8997C246.571 55.8997 248.164 57.824 248.706 58.4125L247.636 59.482C246.674 58.3517 245.165 57.2822 242.905 57.2822C239.743 57.2822 237.235 59.5848 237.235 63.3306C237.235 67.0764 239.832 69.3557 243.054 69.3557C246.277 69.3557 247.468 67.9312 247.468 67.9312V64.3722H243.302V64.3815H243.306Z" fill="#939598"></path></svg> 