<svg width="288" height="328" viewBox="0 0 288 328" fill="none" xmlns="http://www.w3.org/2000/svg">
<mask id="mask0_198_936" style="mask-type:luminance" maskUnits="userSpaceOnUse" x="0" y="0" width="288" height="328">
<path d="M129.489 323.1L10.3139 239.786C3.77428 235.217 -0.0585938 227.94 0.000677482 220.208L0.869987 107.25C0.929259 99.6756 4.72262 92.5762 11.1239 88.0871L129.37 4.91103C138.281 -1.35783 150.412 -1.33805 159.322 4.91103L277.628 88.1662C284.068 92.6948 287.862 99.8536 287.862 107.487L288 219.575C288 227.169 284.246 234.327 277.845 238.876L159.46 322.981C150.57 329.29 138.419 329.329 129.469 323.1H129.489Z" fill="white"/>
</mask>
<g mask="url(#mask0_198_936)">
<mask id="mask1_198_936" style="mask-type:luminance" maskUnits="userSpaceOnUse" x="0" y="-6" width="289" height="305">
<path d="M288.02 95.2658L144.346 -5.60938L0.948975 95.2263L135.791 191.019V293.338L141.284 297.511C143.101 298.895 145.67 298.915 147.527 297.57L153.316 293.338V190.96L270.337 107.823V208.718L287.862 220.762V95.3647L288.02 95.2461V95.2658ZM144.445 176.484L30.2092 95.5031L141.264 17.4094C143.161 16.0844 145.729 16.0844 147.626 17.4094L258.542 95.4043L144.445 176.484Z" fill="white"/>
</mask>
<g mask="url(#mask1_198_936)">
<path d="M198.441 64.8512C198.441 114.013 158.631 153.861 109.514 153.861C60.3982 153.861 20.5876 113.993 20.5876 64.8512C20.5876 15.7089 60.3982 -24.1587 109.514 -24.1587C158.631 -24.1587 198.441 15.6891 198.441 64.8512Z" fill="#FFC60B"/>
<path d="M138.458 113.143C138.458 162.305 98.6479 202.153 49.5317 202.153C0.415558 202.153 -39.3752 162.285 -39.3752 113.143C-39.3752 64.0006 0.415558 24.1331 49.5317 24.1331C98.6479 24.1331 138.458 63.9808 138.458 113.143Z" fill="#FDB51E"/>
<path d="M158.71 -34.0862C143.615 -34.0862 129.37 -30.3882 116.844 -23.8424C162.523 -20.1246 198.441 18.1807 198.441 64.8708C198.441 70.2498 197.967 75.5101 197.058 80.6122C211.224 71.0803 228.274 65.5234 246.609 65.5234C247.379 65.5234 248.17 65.5234 248.94 65.563C249.217 62.6362 249.375 59.6896 249.375 56.6837C249.375 6.57241 208.774 -34.0664 158.71 -34.0664" fill="#EF4136"/>
<path d="M116.824 -23.8621C96.356 -13.1833 80.4713 5.10915 72.9043 27.238C110.68 37.5213 138.439 72.0693 138.439 113.123C138.439 114.844 138.399 116.545 138.3 118.225C146.302 122.873 153.513 128.746 159.697 135.569C164.637 112.748 178.308 93.1896 197.038 80.5728C197.947 75.4706 198.421 70.2104 198.421 64.8314C198.421 18.1413 162.503 -20.1443 116.824 -23.8818" fill="#FAA41A"/>
<path d="M72.9044 27.2378C69.7433 36.4532 68.0442 46.3608 68.0442 56.6441C68.0442 75.2133 73.6157 92.4972 83.1979 106.874C86.6554 106.459 90.1919 106.261 93.7482 106.261C109.989 106.261 125.221 110.612 138.32 118.225C138.419 116.544 138.459 114.844 138.459 113.123C138.459 72.069 110.68 37.5013 72.9242 27.2378" fill="#F68620"/>
<path d="M248.94 65.5234C244.791 108.278 211.006 142.352 168.39 146.88C177.419 160.802 182.655 177.414 182.655 195.271C182.655 201.757 181.964 208.086 180.64 214.196C196.92 232.192 220.431 243.504 246.589 243.504C295.705 243.504 335.516 203.656 335.516 154.494C335.516 105.332 296.95 66.7495 248.92 65.5234" fill="#ED1B50"/>
<path d="M246.609 65.5037C228.255 65.5037 211.204 71.0606 197.058 80.5924C192.909 103.888 179.692 124.039 161.199 137.289C163.807 140.315 166.217 143.538 168.391 146.9C210.987 142.371 244.791 108.298 248.94 65.5432C248.17 65.5432 247.399 65.5037 246.609 65.5037Z" fill="#F1626C"/>
<path d="M197.038 80.5923C178.309 93.2091 164.617 112.767 159.698 135.588C160.211 136.142 160.705 136.715 161.199 137.289C179.692 124.059 192.889 103.888 197.058 80.5923" fill="#F9A76D"/>
<path d="M4.95983 190.169C4.86105 191.85 4.82153 193.55 4.82153 195.271C4.82153 205.079 6.4021 214.512 9.32615 223.332C12.3885 214.117 16.8931 205.594 22.6029 197.98C16.3992 196.002 10.4918 193.372 4.95983 190.169ZM145.176 146.405C140.256 148.561 135.1 150.281 129.765 151.527C127.217 156.847 124.174 161.87 120.657 166.537C147.744 175.139 169.201 196.378 178.131 223.332C179.119 220.346 179.949 217.301 180.62 214.196C166.356 198.415 157.662 177.473 157.662 154.513C157.662 152.12 157.761 149.747 157.939 147.414C153.593 147.374 149.325 147.038 145.156 146.405" fill="#ED1B50"/>
<path d="M133.065 143.716C132.097 146.386 130.99 148.996 129.785 151.527C135.12 150.282 140.276 148.561 145.196 146.406C141.047 145.793 137.016 144.883 133.065 143.736" fill="#FEC876"/>
<path d="M83.1781 106.894C40.7003 111.917 7.4096 146.92 4.95972 190.169C10.4917 193.373 16.3991 196.003 22.6028 197.98C38.8234 176.366 64.6459 162.384 93.7482 162.384C103.133 162.384 112.182 163.848 120.677 166.537C124.174 161.87 127.236 156.847 129.785 151.528C130.99 148.996 132.097 146.386 133.065 143.716C112.419 137.645 94.8348 124.395 83.1979 106.894" fill="#F79A6C"/>
<path d="M159.065 138.752C154.699 141.699 150.056 144.25 145.176 146.406C149.345 147.038 153.612 147.375 157.959 147.414C158.196 144.487 158.551 141.6 159.065 138.772" fill="#EF435E"/>
<path d="M138.3 118.245C137.806 127.144 135.989 135.707 133.065 143.736C136.996 144.903 141.047 145.793 145.196 146.406C150.076 144.27 154.718 141.699 159.085 138.752C159.282 137.685 159.48 136.636 159.717 135.588C153.553 128.766 146.341 122.892 138.32 118.245" fill="#F9A76D"/>
<path d="M93.7481 106.261C90.172 106.261 86.6552 106.479 83.1978 106.874C94.8544 124.395 112.438 137.625 133.065 143.696C135.989 135.687 137.806 127.124 138.3 118.205C125.201 110.592 109.969 106.241 93.7283 106.241" fill="#F58965"/>
<path d="M168.391 146.88C165.21 147.216 161.969 147.394 158.71 147.394H157.979C157.801 149.747 157.702 152.101 157.702 154.493C157.702 177.453 166.395 198.395 180.66 214.176C181.983 208.085 182.675 201.757 182.675 195.251C182.675 177.413 177.439 160.802 168.41 146.86" fill="#ED1B67"/>
<path d="M161.199 137.289C160.507 137.783 159.796 138.278 159.085 138.772C158.571 141.6 158.216 144.487 157.979 147.414H158.71C161.989 147.414 165.21 147.236 168.391 146.9C166.217 143.538 163.807 140.314 161.199 137.289Z" fill="#EF4474"/>
<path d="M159.697 135.588C159.46 136.636 159.263 137.704 159.065 138.752C159.776 138.278 160.488 137.783 161.179 137.269C160.685 136.696 160.191 136.122 159.678 135.568" fill="#F8A992"/>
<path d="M178.15 223.333C166.415 258.731 133.045 284.281 93.7481 284.281C54.4512 284.281 21.0814 258.751 9.34569 223.333C6.42164 232.152 4.84106 241.585 4.84106 251.394C4.84106 300.556 44.6516 340.404 93.7678 340.404C142.884 340.404 182.695 300.556 182.695 251.394C182.695 241.585 181.114 232.152 178.19 223.333" fill="#B72954"/>
<path d="M120.677 166.537C104.456 188.152 78.6339 202.133 49.5316 202.133C40.147 202.133 31.0983 200.67 22.6027 197.98C16.8929 205.574 12.3883 214.117 9.32593 223.333C21.0616 258.731 54.4314 284.281 93.7283 284.281C133.025 284.281 166.395 258.751 178.131 223.333C169.2 196.378 147.724 175.139 120.657 166.537" fill="#ED1B67"/>
<path d="M93.7481 162.384C64.6657 162.384 38.8234 176.365 22.6028 197.98C31.0983 200.67 40.1471 202.133 49.5317 202.133C78.6142 202.133 104.456 188.152 120.677 166.537C112.182 163.847 103.133 162.384 93.7481 162.384Z" fill="#F15D5C"/>
</g>
<mask id="mask2_198_936" style="mask-type:luminance" maskUnits="userSpaceOnUse" x="-1" y="29" width="290" height="305">
<path d="M169.339 148.422L154.205 158.567L144.228 151.567L134.981 158.31L119.887 148.205L135.495 137.012V34.8315L142.113 30.0062C143.477 29.0175 145.373 29.0372 146.697 30.0458L153 34.8315V136.992L169.319 148.422H169.339ZM200.693 171.026L185.559 181.171L255.164 229.463C256.843 230.629 256.843 233.003 255.164 234.169L150.728 308.367C146.974 311.037 141.837 311.057 138.063 308.427L29.5375 232.627L103.232 181.527L88.1371 171.421L17.3671 220.682L16.8732 121.172L-0.0981445 109.405V232.508H0.376029L0.0401546 232.745L144.524 333.621L288.02 231.658L200.693 171.006V171.026Z" fill="white"/>
</mask>
<g mask="url(#mask2_198_936)">
<path d="M137.826 257.94C105.069 221.315 108.17 165.054 144.761 132.266C181.351 99.4781 237.56 102.583 270.317 139.207C303.074 175.832 299.972 232.093 263.382 264.881C226.792 297.669 170.583 294.564 137.826 257.94Z" fill="#43BB92"/>
<path d="M-8.96937 224.539C-46.824 182.199 -43.2282 117.157 -0.947987 79.2673C41.352 41.3773 106.313 44.9567 144.188 87.2962C182.062 129.636 178.466 194.658 136.166 232.568C93.8664 270.458 28.905 266.878 -8.96937 224.539Z" fill="#92278F"/>
<path d="M141.955 114.508C191.068 114.508 230.882 74.6564 230.882 25.4977C230.882 -23.6611 191.068 -63.5122 141.955 -63.5122C92.8424 -63.5122 53.0286 -23.6611 53.0286 25.4977C53.0286 74.6564 92.8424 114.508 141.955 114.508Z" fill="#662D91"/>
<path d="M141.936 71.1001C191.048 71.1001 230.862 31.249 230.862 -17.9098C230.862 -67.0686 191.048 -106.92 141.936 -106.92C92.8226 -106.92 53.0088 -67.0686 53.0088 -17.9098C53.0088 31.249 92.8226 71.1001 141.936 71.1001Z" fill="#492061"/>
<path d="M128.678 245.798C124.391 262.073 115.461 277.32 102.006 289.383C91.5942 298.717 79.6016 305.124 67.0164 308.704C67.0954 329.725 74.5636 350.806 89.6777 367.714C107.242 387.351 131.543 397.358 155.963 397.358C177.083 397.358 198.283 389.863 215.234 374.675C242.538 350.193 251.192 312.639 240.207 279.95C228.709 285.072 216.38 287.603 204.091 287.603C179.671 287.603 155.37 277.597 137.806 257.96C134.368 254.103 131.306 250.049 128.659 245.798" fill="#1FB8D4"/>
<path d="M155.904 219.338C153.375 219.338 150.826 219.437 148.297 219.654C144.682 224.222 140.651 228.533 136.166 232.548C134.309 234.209 132.413 235.791 130.476 237.294C130.022 240.142 129.409 242.969 128.678 245.778C131.326 250.01 134.388 254.083 137.826 257.94C155.39 277.577 179.691 287.583 204.111 287.583C216.4 287.583 228.728 285.052 240.227 279.93C236.493 268.816 230.487 258.276 222.189 248.981C204.625 229.344 180.324 219.338 155.904 219.338Z" fill="#80C570"/>
<path d="M148.297 219.674C142.686 220.148 137.095 221.177 131.622 222.719C131.622 227.604 131.267 232.488 130.476 237.314C132.413 235.811 134.309 234.229 136.166 232.568C140.651 228.553 144.682 224.242 148.297 219.674Z" fill="#F68620"/>
<path d="M-44.6901 206.642C-49.5898 232.884 -42.7144 261.025 -23.55 282.442C-5.9859 302.079 18.3153 312.085 42.7351 312.085C50.8948 312.085 59.0743 310.958 67.0166 308.704C66.9573 290.787 72.272 272.89 82.8025 257.663C77.7842 258.414 72.7067 258.79 67.6488 258.79C39.4357 258.79 11.3411 247.221 -8.96922 224.539C-12.7033 220.366 -16.0225 215.976 -18.9663 211.408C-27.699 211.091 -36.3723 209.509 -44.7098 206.642" fill="#30307A"/>
<path d="M71.62 138.891C68.1428 157.499 58.7186 175.159 43.5452 188.765C26.5738 203.972 5.37446 211.467 -15.7459 211.467C-16.8128 211.467 -17.8796 211.467 -18.9465 211.408C-16.0225 215.976 -12.6835 220.366 -8.94944 224.539C11.3609 247.241 39.4357 258.79 67.6686 258.79C72.7264 258.79 77.804 258.414 82.8223 257.663C86.7145 252.046 91.3179 246.786 96.6325 242.02C107.045 232.686 119.037 226.279 131.642 222.699C131.563 201.678 124.095 180.597 108.961 163.689C98.4502 151.942 85.5488 143.657 71.6398 138.871" fill="#92278F"/>
<path d="M125.754 240.755C112.596 249.812 97.8771 255.428 82.8024 257.663C72.2521 272.89 66.9375 290.767 67.0165 308.704C79.6018 305.124 91.6141 298.717 102.006 289.383C115.461 277.32 124.391 262.073 128.678 245.798C127.651 244.137 126.663 242.456 125.754 240.755Z" fill="#0082C6"/>
<path d="M130.476 237.314C128.935 238.52 127.355 239.667 125.754 240.775C126.663 242.475 127.651 244.156 128.678 245.817C129.409 243.009 130.022 240.181 130.476 237.334" fill="#F9A76D"/>
<path d="M131.622 222.719C119.037 226.299 107.025 232.706 96.6127 242.04C91.298 246.806 86.6946 252.066 82.8025 257.682C97.8772 255.448 112.596 249.832 125.754 240.774C127.355 239.667 128.935 238.52 130.476 237.314C131.247 232.488 131.642 227.604 131.622 222.719Z" fill="#F58965"/>
<path d="M-15.8053 33.4473C-36.9256 33.4473 -58.125 40.9422 -75.0766 56.1298C-111.667 88.9177 -114.769 145.179 -82.0113 181.804C-71.5005 193.55 -58.5991 201.836 -44.6901 206.622C-42.7144 196.082 -38.842 185.858 -33.0927 176.504C-40.1263 141.877 -29.1413 104.54 -0.928162 79.2673C12.151 67.5601 27.3838 59.8081 43.3277 55.9321C26.5935 41.0213 5.43363 33.4473 -15.8053 33.4473Z" fill="#F47A61"/>
<path d="M43.308 55.9321C27.364 59.8081 12.1312 67.5404 -0.947975 79.2673C-29.1414 104.541 -40.1461 141.877 -33.1125 176.504C-28.7067 169.325 -23.2142 162.661 -16.6154 156.768C0.356003 141.56 21.5554 134.065 42.656 134.065C52.4752 134.065 62.255 135.687 71.6001 138.891C76.4999 112.648 69.6244 84.5078 50.46 63.0909C48.188 60.5398 45.7776 58.147 43.2882 55.9321" fill="#492061"/>
<path d="M42.6757 134.065C21.5554 134.065 0.356003 141.56 -16.5956 156.768C-23.1747 162.681 -28.6869 169.345 -33.0928 176.504C-30.6231 188.686 -25.9209 200.531 -18.9467 211.388C-17.8798 211.428 -16.8129 211.447 -15.746 211.447C5.37431 211.447 26.5737 203.952 43.545 188.745C58.7383 175.139 68.1426 157.48 71.6199 138.871C62.2748 135.667 52.4752 134.046 42.6757 134.046" fill="#662D91"/>
<path d="M192.316 197.189C174.535 177.315 176.234 146.781 196.09 128.983C215.946 111.185 246.451 112.886 264.232 132.76C282.013 152.635 280.314 183.168 260.458 200.966C240.602 218.764 210.098 217.064 192.316 197.189Z" fill="#00A080"/>
<path d="M120.736 460.026C135.258 451.542 152.328 447.073 170.366 448.082C184.315 448.853 197.315 452.808 208.734 459.196C223.532 444.265 233.134 424.074 234.399 401.431C235.861 375.11 225.765 350.845 208.517 333.561C193.6 318.611 173.349 308.901 150.609 307.655C114.039 305.638 81.3999 326.066 66.0486 356.956C77.7843 361.465 88.2753 368.406 96.9685 377.087C114.216 394.371 124.312 418.636 122.85 444.957C122.554 450.119 121.843 455.142 120.736 460.026Z" fill="#00A7C6"/>
</g>
</g>
</svg>
