<svg width="18" height="16" viewBox="0 0 18 16" fill="none" xmlns="http://www.w3.org/2000/svg">
<g clip-path="url(#clip0_197_849)">
<path d="M17.6231 8.94191C18.1254 8.42128 18.1254 7.57578 17.6231 7.05515L11.1943 0.391083C10.692 -0.129547 9.87633 -0.129547 9.37408 0.391083C8.87183 0.911713 8.87183 1.75722 9.37408 2.27785L13.6131 6.6678H1.28577C0.574579 6.6678 0 7.2634 0 8.00061C0 8.73782 0.574579 9.33342 1.28577 9.33342H13.6091L9.3781 13.7234C8.87584 14.244 8.87584 15.0895 9.3781 15.6101C9.88035 16.1308 10.696 16.1308 11.1983 15.6101L17.6271 8.94607L17.6231 8.94191Z" fill="#fff"/>
</g>
<defs>
<clipPath id="clip0_197_849">
<rect width="18" height="16" fill="white"/>
</clipPath>
</defs>
</svg>
