<svg width="50" height="57" viewBox="0 0 50 57" fill="none" xmlns="http://www.w3.org/2000/svg">
<mask id="mask0_170_104" style="mask-type:luminance" maskUnits="userSpaceOnUse" x="0" y="0" width="50" height="57">
<path d="M22.55 56.1733L1.9109 41.6822C0.778536 40.8876 0.114854 39.6218 0.125117 38.2804L0.275643 18.6332C0.285906 17.3158 0.942746 16.081 2.05116 15.3002L22.5295 0.829667C24.0724 -0.260697 26.1729 -0.257257 27.7158 0.829667L48.201 15.3105C49.3162 16.0982 49.9731 17.3433 49.9731 18.671L49.997 38.1669C49.997 39.4877 49.347 40.7328 48.2386 41.5239L27.7397 56.1527C26.2003 57.2499 24.0963 57.2568 22.5466 56.1733H22.55Z" fill="white"/>
</mask>
<g mask="url(#mask0_170_104)">
<path d="M50.0007 16.5456L25.1229 -1L0.292969 16.5387L23.6416 33.2003V50.9969L24.5926 51.7227C24.9073 51.9634 25.3521 51.9669 25.6737 51.733L26.676 50.9969V33.1899L46.9388 18.7297V36.2787L49.9733 38.3735V16.5662L50.0007 16.5456ZM25.14 30.6652L5.35953 16.5834L24.5892 3.00029C24.9176 2.76984 25.3623 2.76984 25.6908 3.00029L44.8965 16.5662L25.14 30.6687V30.6652Z" fill="white"/>
<mask id="mask1_170_104" style="mask-type:luminance" maskUnits="userSpaceOnUse" x="0" y="-1" width="51" height="53">
<path d="M50.0007 16.5456L25.1229 -1L0.292969 16.5387L23.6416 33.2003V50.9969L24.5926 51.7227C24.9073 51.9634 25.3521 51.9669 25.6737 51.733L26.676 50.9969V33.1899L46.9388 18.7297V36.2787L49.9733 38.3735V16.5662L50.0007 16.5456ZM25.14 30.6652L5.35953 16.5834L24.5892 3.00029C24.9176 2.76984 25.3623 2.76984 25.6908 3.00029L44.8965 16.5662L25.14 30.6687V30.6652Z" fill="white"/>
</mask>
<g mask="url(#mask1_170_104)">
<path d="M34.247 13.9932C31.0039 16.1876 28.6331 19.5894 27.7812 23.5588C27.8702 23.6551 27.9557 23.7548 28.0412 23.8546C31.2433 21.5535 33.5286 18.045 34.2504 13.9932" fill="white"/>
<path d="M23.1695 24.9727C23.0018 25.437 22.8102 25.891 22.6016 26.3313C23.5252 26.1146 24.4181 25.8154 25.27 25.4404C24.5516 25.3338 23.8537 25.1756 23.1695 24.9761" fill="white"/>
<path d="M27.6716 24.1089C26.9155 24.6214 26.1116 25.0651 25.2666 25.44C25.9884 25.5501 26.7274 25.6086 27.48 25.6154C27.5211 25.1064 27.5826 24.6042 27.6716 24.1123" fill="white"/>
<path d="M24.0765 20.542C23.991 22.0898 23.6762 23.5792 23.1699 24.9757C23.8507 25.1786 24.552 25.3334 25.2704 25.44C26.1154 25.0685 26.9194 24.6214 27.6754 24.1089C27.7096 23.9231 27.7439 23.7408 27.7849 23.5585C26.7175 22.3719 25.4689 21.3503 24.0799 20.542" fill="white"/>
<path d="M16.362 18.4614C15.7428 18.4614 15.1338 18.4993 14.5352 18.5681C16.5536 21.6156 19.5983 23.9167 23.1699 24.9727C23.6762 23.5796 23.9909 22.0903 24.0764 20.539C21.8083 19.2147 19.1707 18.458 16.3586 18.458" fill="white"/>
<path d="M28.041 23.8545C27.9213 23.9405 27.7981 24.0265 27.675 24.1125C27.586 24.6043 27.5245 25.1065 27.4834 25.6156C27.5245 25.6156 27.5689 25.6156 27.61 25.6156C28.1779 25.6156 28.7355 25.5846 29.2863 25.5262C28.91 24.9414 28.4926 24.3808 28.041 23.8545Z" fill="white"/>
<path d="M27.7814 23.5586C27.7403 23.7409 27.7061 23.9267 27.6719 24.109C27.795 24.0264 27.9182 23.9404 28.0379 23.851C27.9524 23.7512 27.8669 23.6515 27.7779 23.5552" fill="white"/>
</g>
<path d="M29.4502 25.7913L26.8296 27.5558L25.102 26.3382L23.501 27.5111L20.8873 25.7534L23.5899 23.8066V6.03401L24.736 5.19474C24.972 5.02275 25.3004 5.02619 25.5297 5.20162L26.621 6.03401V23.8031L29.4467 25.7913H29.4502ZM34.8794 29.7227L32.2588 31.4873L44.3112 39.8869C44.6019 40.0898 44.6019 40.5026 44.3146 40.7055L26.231 53.611C25.581 54.0753 24.6915 54.0788 24.0381 53.6213L5.24289 40.4406L18.0034 31.5526L15.3897 29.795L3.13553 38.3665L3.05 21.0583L0.111328 19.0117V40.4234H0.193434L0.135275 40.4647L25.1533 58.0103L50.0003 40.2755L34.8794 29.7262V29.7227Z" fill="white"/>
<mask id="mask2_170_104" style="mask-type:luminance" maskUnits="userSpaceOnUse" x="0" y="5" width="50" height="54">
<path d="M29.4502 25.7913L26.8296 27.5558L25.102 26.3382L23.501 27.5111L20.8873 25.7534L23.5899 23.8066V6.03401L24.736 5.19474C24.972 5.02275 25.3004 5.02619 25.5297 5.20162L26.621 6.03401V23.8031L29.4467 25.7913H29.4502ZM34.8794 29.7227L32.2588 31.4873L44.3112 39.8869C44.6019 40.0898 44.6019 40.5026 44.3146 40.7055L26.231 53.611C25.581 54.0753 24.6915 54.0788 24.0381 53.6213L5.24289 40.4406L18.0034 31.5526L15.3897 29.795L3.13553 38.3665L3.05 21.0583L0.111328 19.0117V40.4234H0.193434L0.135275 40.4647L25.1533 58.0103L50.0003 40.2755L34.8794 29.7262V29.7227Z" fill="white"/>
</mask>
<g mask="url(#mask2_170_104)">
<path d="M25.8075 38.1846C24.8359 38.2671 23.8677 38.446 22.9201 38.7143C22.9201 39.5639 22.8585 40.4135 22.7217 41.2527C23.0569 40.9913 23.3854 40.7161 23.7069 40.4272C24.4835 39.729 25.1814 38.9791 25.8075 38.1846Z" fill="white"/>
<path d="M22.7209 41.2524C22.4541 41.4623 22.1804 41.6618 21.9033 41.8544C22.0607 42.1502 22.2317 42.4426 22.4096 42.7315C22.5362 42.2431 22.6423 41.7512 22.7209 41.2559" fill="white"/>
<path d="M22.9202 38.7144C20.741 39.3369 18.661 40.4514 16.8581 42.0749C15.9378 42.9038 15.1407 43.8188 14.4668 44.7956C17.0771 44.4069 19.6257 43.4301 21.9041 41.8547C22.1812 41.6621 22.4549 41.4626 22.7218 41.2528C22.8552 40.4135 22.9236 39.5639 22.9202 38.7144Z" fill="white"/>
<path d="M-2.60803 5.79688C-6.26512 5.79688 -9.9359 7.1005 -12.8712 9.74213C-19.2069 15.445 -19.744 25.2308 -14.0719 31.601C-12.2519 33.6441 -10.018 35.0853 -7.60959 35.9177C-7.26749 34.0844 -6.59696 32.3061 -5.60144 30.6792C-6.81933 24.6564 -4.91723 18.1623 -0.0319881 13.7665C2.23274 11.7302 4.87036 10.3819 7.63114 9.70774C4.73694 7.11425 1.07301 5.79688 -2.60461 5.79688" fill="white"/>
</g>
</g>
</svg>
