<svg width="39" height="39" viewBox="0 0 39 39" fill="none" xmlns="http://www.w3.org/2000/svg">
<g clip-path="url(#clip0_2089_5)">
<path d="M31.6894 15.8416C31.6894 19.3374 30.5543 22.5666 28.6423 25.1866L38.2862 34.8363C39.2384 35.7883 39.2384 37.3343 38.2862 38.2864C37.334 39.2384 35.7876 39.2384 34.8354 38.2864L25.1915 28.6367C22.5711 30.556 19.3412 31.6832 15.8447 31.6832C7.09202 31.6832 0 24.5925 0 15.8416C0 7.09063 7.09202 0 15.8447 0C24.5973 0 31.6894 7.09063 31.6894 15.8416ZM15.8447 26.8088C21.903 26.8088 26.8141 21.8987 26.8141 15.8416C26.8141 9.78446 21.903 4.87433 15.8447 4.87433C9.78637 4.87433 4.87529 9.78446 4.87529 15.8416C4.87529 21.8987 9.78637 26.8088 15.8447 26.8088Z" fill="#444444"/>
</g>
<path d="M22.3446 16.6036H16.6291V22.3191H14.741V16.6036H9V14.7155H14.741V9H16.6291V14.7155H22.3446V16.6036Z" fill="#444444"/>
<defs>
<clipPath id="clip0_2089_5">
<rect width="39" height="39" fill="white"/>
</clipPath>
</defs>
</svg>
