<svg width="202" height="146" viewBox="0 0 202 146" fill="none" xmlns="http://www.w3.org/2000/svg">
<mask id="mask0_2019_33" style="mask-type:luminance" maskUnits="userSpaceOnUse" x="0" y="0" width="202" height="230">
<path d="M90.822 226.486L7.23404 168.051C2.64724 164.846 -0.0410971 159.742 0.000475178 154.319L0.6102 75.0913C0.651772 69.7789 3.31239 64.7995 7.8022 61.6509L90.7388 3.31213C96.9885 -1.08477 105.497 -1.0709 111.747 3.31213L194.725 61.7064C199.242 64.8827 201.903 69.9038 201.903 75.2577L202 153.875C202 159.201 199.367 164.222 194.877 167.412L111.844 226.403C105.608 230.828 97.0855 230.856 90.8081 226.486H90.822Z" fill="white"/>
</mask>
<g mask="url(#mask0_2019_33)">
<mask id="mask1_2019_33" style="mask-type:luminance" maskUnits="userSpaceOnUse" x="0" y="-5" width="203" height="215">
<path d="M202.014 66.6862L101.242 -4.06659L0.665283 66.6584L95.2421 133.846V205.612L99.0945 208.538C100.369 209.509 102.171 209.523 103.473 208.58L107.534 205.612V133.805L189.611 75.4938V146.26L201.903 154.708V66.7555L202.014 66.6723V66.6862ZM101.312 123.652L21.1881 66.8526L99.0806 12.0785C100.411 11.1492 102.212 11.1492 103.543 12.0785L181.338 66.7833L101.312 123.652Z" fill="white"/>
</mask>
<g mask="url(#mask1_2019_33)">
<path d="M139.184 45.3537C139.184 79.8354 111.261 107.784 76.8119 107.784C42.3624 107.784 14.4397 79.8216 14.4397 45.3537C14.4397 10.8858 42.3624 -17.0768 76.8119 -17.0768C111.261 -17.0768 139.184 10.872 139.184 45.3537Z" fill="#FFC60B"/>
<path d="M97.1126 79.2253C97.1126 113.707 69.19 141.656 34.7404 141.656C0.290905 141.656 -27.6179 113.693 -27.6179 79.2253C-27.6179 44.7575 0.290905 16.7948 34.7404 16.7948C69.19 16.7948 97.1126 44.7436 97.1126 79.2253Z" fill="#FDB51E"/>
<path d="M111.317 -24.0396C100.729 -24.0396 90.7382 -21.4459 81.9526 -16.8548C113.991 -14.2471 139.184 12.6198 139.184 45.3677C139.184 49.1405 138.851 52.83 138.214 56.4085C148.15 49.723 160.108 45.8254 172.968 45.8254C173.509 45.8254 174.063 45.8254 174.603 45.8532C174.797 43.8004 174.908 41.7337 174.908 39.6254C174.908 4.47787 146.431 -24.0257 111.317 -24.0257" fill="#EF4136"/>
<path d="M81.9388 -16.8688C67.5825 -9.37876 56.4412 3.45132 51.1338 18.9723C77.6292 26.1849 97.0988 50.4164 97.0988 79.2113C97.0988 80.418 97.0711 81.6109 97.0018 82.7898C102.614 86.0494 107.672 90.1689 112.009 94.9542C115.474 78.9478 125.063 65.2299 138.2 56.3807C138.837 52.8021 139.17 49.1126 139.17 45.3398C139.17 12.5919 113.977 -14.2611 81.9388 -16.8826" fill="#FAA41A"/>
<path d="M51.1335 18.9723C48.9163 25.4359 47.7246 32.3849 47.7246 39.5975C47.7246 52.6218 51.6324 64.7445 58.3532 74.8283C60.7783 74.537 63.2588 74.3983 65.7531 74.3983C77.1439 74.3983 87.828 77.4498 97.0154 82.7899C97.0847 81.6109 97.1124 80.418 97.1124 79.2113C97.1124 50.4164 77.6289 26.171 51.1474 18.9723" fill="#F68620"/>
<path d="M174.603 45.8251C171.693 75.8129 147.997 99.7115 118.106 102.888C124.439 112.653 128.111 124.304 128.111 136.829C128.111 141.378 127.626 145.817 126.698 150.103C138.117 162.725 154.607 170.658 172.954 170.658C207.404 170.658 235.326 142.71 235.326 108.228C235.326 73.7462 208.277 46.6851 174.589 45.8251" fill="#ED1B50"/>
<path d="M172.968 45.8115C160.095 45.8115 148.136 49.709 138.214 56.3945C135.304 72.7338 126.033 86.8677 113.063 96.1609C114.892 98.2831 116.583 100.544 118.107 102.902C147.983 99.7256 171.693 75.8269 174.604 45.8392C174.063 45.8392 173.523 45.8115 172.968 45.8115Z" fill="#F1626C"/>
<path d="M138.2 56.3945C125.063 65.2438 115.46 78.9616 112.01 94.968C112.37 95.3564 112.716 95.7586 113.063 96.1609C126.033 86.8816 135.29 72.7338 138.214 56.3945" fill="#F9A76D"/>
<path d="M3.47835 133.25C3.40906 134.429 3.38135 135.622 3.38135 136.829C3.38135 143.709 4.48994 150.325 6.54084 156.511C8.68874 150.047 11.8482 144.069 15.853 138.729C11.5018 137.342 7.35843 135.497 3.47835 133.25ZM101.824 102.555C98.3739 104.067 94.7571 105.274 91.0156 106.148C89.228 109.879 87.094 113.402 84.6274 116.675C103.626 122.709 118.675 137.606 124.939 156.511C125.631 154.417 126.213 152.281 126.685 150.103C116.68 139.034 110.582 124.346 110.582 108.242C110.582 106.564 110.652 104.899 110.776 103.263C107.728 103.235 104.734 102.999 101.811 102.555" fill="#ED1B50"/>
<path d="M93.3296 100.669C92.6506 102.541 91.8746 104.372 91.0293 106.148C94.7708 105.274 98.3876 104.067 101.838 102.555C98.928 102.125 96.1011 101.487 93.3296 100.683" fill="#FEC876"/>
<path d="M58.3395 74.8421C28.5461 78.3652 5.19635 102.916 3.47803 133.25C7.3581 135.497 11.5015 137.342 15.8527 138.729C27.2296 123.569 45.3413 113.762 65.7532 113.762C72.3355 113.762 78.6822 114.789 84.6409 116.675C87.0937 113.402 89.2416 109.879 91.0292 106.148C91.8745 104.372 92.6505 102.541 93.3295 100.669C78.8485 96.4105 66.5154 87.1174 58.3534 74.8421" fill="#F79A6C"/>
<path d="M111.566 97.1873C108.503 99.2539 105.247 101.043 101.824 102.555C104.748 102.999 107.741 103.235 110.79 103.262C110.956 101.21 111.206 99.1846 111.566 97.2011" fill="#EF435E"/>
<path d="M97.0018 82.8036C96.6554 89.0453 95.3805 95.0511 93.3296 100.682C96.0872 101.501 98.928 102.125 101.838 102.555C105.261 101.057 108.517 99.2539 111.58 97.1872C111.718 96.4382 111.857 95.703 112.023 94.9679C107.7 90.1826 102.642 86.0631 97.0157 82.8036" fill="#F9A76D"/>
<path d="M65.7534 74.3985C63.2452 74.3985 60.7786 74.551 58.3535 74.8284C66.5294 87.1176 78.8625 96.3969 93.3296 100.655C95.3805 95.0376 96.6554 89.0317 97.0018 82.7761C87.8144 77.4361 77.1303 74.3846 65.7395 74.3846" fill="#F58965"/>
<path d="M118.107 102.888C115.876 103.124 113.603 103.249 111.317 103.249H110.804C110.679 104.899 110.61 106.55 110.61 108.228C110.61 124.332 116.707 139.02 126.712 150.089C127.641 145.817 128.126 141.378 128.126 136.815C128.126 124.304 124.454 112.653 118.121 102.874" fill="#ED1B67"/>
<path d="M113.062 96.1608C112.577 96.5076 112.079 96.8543 111.58 97.2011C111.219 99.1846 110.97 101.21 110.804 103.262H111.316C113.617 103.262 115.876 103.138 118.107 102.902C116.582 100.544 114.892 98.283 113.062 96.1608Z" fill="#EF4474"/>
<path d="M112.009 94.968C111.843 95.7032 111.704 96.4522 111.566 97.1873C112.065 96.8544 112.563 96.5076 113.048 96.147C112.702 95.7448 112.356 95.3425 111.995 94.9542" fill="#F8A992"/>
<path d="M84.6412 116.675C73.2642 131.835 55.1526 141.642 34.7406 141.642C28.1583 141.642 21.8116 140.615 15.853 138.729C11.8482 144.055 8.68867 150.047 6.54077 156.511C14.7721 181.339 38.1773 199.259 65.7397 199.259C93.302 199.259 116.707 181.353 124.939 156.511C118.675 137.605 103.612 122.709 84.6273 116.675" fill="#ED1B67"/>
<path d="M65.7533 113.762C45.3552 113.762 27.2297 123.569 15.8528 138.729C21.8115 140.615 28.1582 141.642 34.7404 141.642C55.1385 141.642 73.264 131.835 84.641 116.675C78.6823 114.789 72.3356 113.762 65.7533 113.762Z" fill="#F15D5C"/>
</g>
<mask id="mask2_2019_33" style="mask-type:luminance" maskUnits="userSpaceOnUse" x="-1" y="20" width="204" height="214">
<path d="M118.772 103.97L108.157 111.085L101.159 106.175L94.6738 110.905L84.0867 103.817L95.0341 95.9665V24.2983L99.6763 20.9139C100.632 20.2204 101.963 20.2343 102.891 20.9417L107.312 24.2983V95.9526L118.758 103.97H118.772ZM140.764 119.824L130.149 126.939L178.968 160.81C180.146 161.629 180.146 163.293 178.968 164.112L105.718 216.153C103.085 218.026 99.4823 218.04 96.8356 216.195L20.7168 163.03L72.4049 127.189L61.8179 120.101L12.1806 154.652L11.8342 84.8563L-0.0693359 76.6035V162.947H0.263244L0.0276655 163.113L101.367 233.866L202.013 162.35L140.764 119.81V119.824Z" fill="white"/>
</mask>
<g mask="url(#mask2_2019_33)">
<path d="M96.6689 180.784C73.6933 155.096 75.8689 115.635 101.533 92.6376C127.197 69.6406 166.621 71.8182 189.597 97.5061C212.572 123.194 210.397 162.655 184.733 185.652C159.069 208.649 119.645 206.472 96.6689 180.784Z" fill="#43BB92"/>
<path d="M-6.29129 157.357C-32.8421 127.66 -30.3201 82.0406 -0.665188 55.465C29.0035 28.8894 74.5667 31.3999 101.131 61.0964C127.696 90.7928 125.174 136.399 95.5053 162.988C65.8365 189.564 20.2734 187.053 -6.29129 157.357Z" fill="#92278F"/>
<path d="M99.5653 80.1819C134.013 80.1819 161.938 52.2308 161.938 17.7514C161.938 -16.728 134.013 -44.6791 99.5653 -44.6791C65.1181 -44.6791 37.1931 -16.728 37.1931 17.7514C37.1931 52.2308 65.1181 80.1819 99.5653 80.1819Z" fill="#662D91"/>
<path d="M99.5514 49.7364C133.999 49.7364 161.924 21.7853 161.924 -12.6941C161.924 -47.1735 133.999 -75.1246 99.5514 -75.1246C65.1042 -75.1246 37.1792 -47.1735 37.1792 -12.6941C37.1792 21.7853 65.1042 49.7364 99.5514 49.7364Z" fill="#492061"/>
<path d="M-31.3455 144.804C-34.7821 163.21 -29.9598 182.948 -16.5181 197.969C-4.19884 211.742 12.8458 218.761 29.9735 218.761C35.6967 218.761 41.4336 217.97 47.0043 216.389C46.9627 203.823 50.6904 191.27 58.0764 180.59C54.5566 181.117 50.9952 181.38 47.4477 181.38C27.6594 181.38 7.95411 173.266 -6.29131 157.357C-8.91036 154.43 -11.2384 151.351 -13.3032 148.147C-19.4281 147.925 -25.5115 146.815 -31.3594 144.804" fill="#30307A"/>
<path d="M50.2326 97.2841C47.7937 110.336 41.1837 122.722 30.5412 132.265C18.6377 142.931 3.76868 148.188 -11.0449 148.188C-11.7932 148.188 -12.5415 148.188 -13.2898 148.147C-11.2389 151.351 -8.897 154.43 -6.27795 157.357C7.96748 173.28 27.6589 181.38 47.4611 181.38C51.0086 181.38 54.57 181.117 58.0898 180.589C60.8197 176.65 64.0484 172.961 67.7761 169.618C75.0789 163.071 83.4904 158.577 92.3314 156.067C92.276 141.322 87.0379 126.537 76.4231 114.678C69.051 106.439 60.0021 100.627 50.2464 97.2702" fill="#92278F"/>
<path d="M-11.0863 23.3273C-25.8999 23.3273 -40.7689 28.5841 -52.6585 39.2366C-78.3225 62.2336 -80.4981 101.695 -57.5225 127.383C-50.1504 135.622 -41.1015 141.433 -31.3458 144.79C-29.9601 137.397 -27.244 130.226 -23.2115 123.666C-28.1448 99.3785 -20.4401 73.1912 -0.651665 55.4649C8.52194 47.2537 19.206 41.8165 30.3889 39.0979C18.6517 28.6396 3.81042 23.3273 -11.0863 23.3273Z" fill="#F47A61"/>
<path d="M30.3753 39.0978C19.1923 41.8164 8.50825 47.2397 -0.665361 55.4648C-20.4399 73.1912 -28.1585 99.3784 -23.2252 123.665C-20.135 118.63 -16.2827 113.956 -11.6543 109.823C0.249233 99.1565 15.1182 93.8996 29.918 93.8996C36.8051 93.8996 43.6645 95.037 50.2191 97.284C53.6557 78.878 48.8333 59.1405 35.3916 44.1189C33.798 42.3296 32.1074 40.6513 30.3614 39.0978" fill="#492061"/>
<path d="M29.9318 93.8999C15.1182 93.8999 0.249176 99.1568 -11.6405 109.823C-16.255 113.97 -20.1212 118.645 -23.2114 123.666C-21.4792 132.21 -18.1812 140.518 -13.2895 148.133C-12.5412 148.161 -11.7929 148.175 -11.0446 148.175C3.76896 148.175 18.638 142.918 30.5415 132.251C41.1978 122.709 47.794 110.322 50.2329 97.2704C43.6783 95.0234 36.805 93.886 29.9318 93.886" fill="#662D91"/>
<path d="M134.888 138.174C122.416 124.234 123.608 102.818 137.535 90.335C151.462 77.8517 172.857 79.0445 185.329 92.9843C197.801 106.924 196.609 128.34 182.682 140.823C168.756 153.307 147.36 152.114 134.888 138.174Z" fill="#00A080"/>
</g>
</g>
</svg>
