<?xml version="1.0" encoding="UTF-8"?> <svg xmlns="http://www.w3.org/2000/svg" width="22" height="20" viewBox="0 0 22 20" fill="none"><g id="Layer_1" clip-path="url(#clip0_166_367)"><path id="Vector" d="M19.16 15.87C18.48 17.28 17.58 17.99 16.48 17.99C13.8 17.99 11.67 17.51 9.58 16.43C8.61 15.92 8.01 14.93 8.01 13.83V10.94C8.01 10.03 8.44 9.16001 9.16 8.61001C9.31 8.50001 10.5 7.65001 11.84 6.47001C13.79 4.77001 15.06 3.26001 15.63 2.00001C15.63 1.99001 15.63 1.98001 15.66 1.98001C15.69 1.98001 15.7 1.99001 15.71 2.00001C15.89 2.29001 16 2.64001 16 2.92001C16 5.43001 14.34 7.22001 14.28 7.28001C14 7.57001 13.92 7.99001 14.07 8.37001C14.23 8.74001 14.59 8.98001 15 8.98001H19C19.18 8.98001 19.53 8.98001 19.79 9.93001C20 10.74 20 11.79 20 12.48C20 13.11 19.77 14.59 19.16 15.86V15.87ZM6 16.99H1V8.00001H6V17V16.99ZM21.71 9.42001C21.15 7.31001 19.77 6.99001 19 6.99001H16.92C17.47 5.99001 18 4.59001 18 2.93001C18 2.27001 17.79 1.58001 17.41 0.970014C17.02 0.330014 16.3 -0.0399864 15.54 1.35982e-05C14.78 0.0500136 14.12 0.500014 13.81 1.19001C12.89 3.23001 9.29 6.08001 7.99 7.00001C7.99 7.00001 7.98 7.01001 7.97 7.01001C7.92 7.05001 7.87 7.09001 7.82 7.13001C7.5 6.45001 6.81 5.98001 6.01 5.98001H0.5C0.23 5.98001 0 6.21001 0 6.48001V18.48C0 18.75 0.23 18.98 0.5 18.98H6C6.85 18.98 7.58 18.44 7.87 17.69C8.11 17.88 8.37 18.05 8.66 18.19C11.05 19.42 13.46 19.97 16.48 19.97C17.54 19.97 18.49 19.62 19.31 18.94C19.96 18.4 20.51 17.65 20.96 16.72C21.67 15.24 22 13.49 22 12.48C22 11.68 22 10.47 21.72 9.41001L21.71 9.42001Z" fill="#444444"></path><path id="Vector_2" d="M4 14C3.45 14 3 14.45 3 15C3 15.55 3.45 16 4 16C4.55 16 5 15.55 5 15C5 14.45 4.55 14 4 14Z" fill="#444444"></path></g><defs><clipPath id="clip0_166_367"><rect width="22" height="19.99" fill="white"></rect></clipPath></defs></svg> 