<?xml version="1.0" encoding="UTF-8"?> <svg xmlns="http://www.w3.org/2000/svg" width="29" height="29" viewBox="0 0 29 29" fill="none"><g clip-path="url(#clip0_166_341)"><path d="M15.8182 25.6915V15.4756L26.3636 10.071V20.3001L15.8182 25.7047V25.6915ZM2.63636 10.071L13.1818 15.4756V25.6915L2.63636 20.2869V10.071ZM14.5 2.63649L24.7818 7.90921L14.5 13.1819L4.21818 7.90921L14.5 2.63649ZM27.5632 6.36694L15.6995 0.290123C14.9482 -0.0921502 14.0518 -0.0921502 13.3005 0.290123L1.43682 6.36694C0.553636 6.81512 0 7.72467 0 8.7133V20.2869C0 21.2756 0.540455 22.1719 1.43682 22.6333L13.3005 28.7101C13.6827 28.9079 14.0914 29.0001 14.5 29.0001C14.9086 29.0001 15.3305 28.9079 15.6995 28.7101L27.5632 22.6333C28.4464 22.1851 29 21.2756 29 20.2869V8.7133C29 7.72467 28.4595 6.8283 27.5632 6.36694Z" fill="#444444"></path><path d="M10.5454 21.3809L5.27271 18.6786V14.3945L10.5454 17.0968V21.3809ZM11.5077 16.1082L4.9168 12.7336C4.70589 12.6282 4.46862 12.6413 4.28408 12.76C4.08635 12.8786 3.96771 13.0895 3.96771 13.3268V19.1004C3.96771 19.3509 4.11271 19.575 4.32362 19.6804L10.9145 23.055C11.0068 23.1077 11.1123 23.1341 11.2177 23.1341C11.3363 23.1341 11.455 23.1077 11.5604 23.0418C11.7582 22.9232 11.8768 22.7123 11.8768 22.475V16.7013C11.8768 16.4509 11.7318 16.2268 11.5209 16.1213L11.5077 16.1082Z" fill="#444444"></path></g><defs><clipPath id="clip0_166_341"><rect width="29" height="29" fill="white"></rect></clipPath></defs></svg> 