<?xml version="1.0" encoding="UTF-8"?> <svg xmlns="http://www.w3.org/2000/svg" width="30" height="29" viewBox="0 0 30 29" fill="none"><g id="Layer_1" clip-path="url(#clip0_37_7)"><path id="Vector" d="M27.4953 0H2.63173C1.49244 0 0.566772 0.938616 0.566772 2.09085V26.9092C0.566772 28.0614 1.49244 29 2.63173 29H27.4953C28.6346 29 29.5668 28.0614 29.5668 26.9092V2.09085C29.5668 0.938616 28.6346 0 27.4953 0ZM9.3315 24.8571H5.03329V11.0174H9.33798V24.8571H9.3315ZM7.1824 9.12723C5.8036 9.12723 4.69021 8.00737 4.69021 6.63504C4.69021 5.26272 5.8036 4.14286 7.1824 4.14286C8.56119 4.14286 9.67458 5.26272 9.67458 6.63504C9.67458 8.00737 8.56119 9.12723 7.1824 9.12723ZM25.4433 24.8571H21.1451V18.125C21.1451 16.5196 21.1128 14.4547 18.9119 14.4547C16.711 14.4547 16.329 16.2025 16.329 18.0085V24.8571H12.0308V11.0174H16.1543V12.9076H16.2125C16.7886 11.8201 18.1933 10.6743 20.2842 10.6743C24.6342 10.6743 25.4433 13.542 25.4433 17.2705V24.8571Z" fill="#444444"></path></g><defs><clipPath id="clip0_37_7"><rect width="29" height="29" fill="white" transform="translate(0.566772)"></rect></clipPath></defs></svg> 