<?xml version="1.0" encoding="UTF-8"?> <svg xmlns="http://www.w3.org/2000/svg" width="29" height="29" viewBox="0 0 29 29" fill="none"><g id="Layer_1" clip-path="url(#clip0_37_5)"><path id="Vector" d="M14.5035 7.06525C10.3888 7.06525 7.06994 10.3849 7.06994 14.5005C7.06994 18.6161 10.3888 21.9357 14.5035 21.9357C18.6182 21.9357 21.9371 18.6161 21.9371 14.5005C21.9371 10.3849 18.6182 7.06525 14.5035 7.06525ZM14.5035 19.3344C11.8445 19.3344 9.67072 17.1666 9.67072 14.5005C9.67072 11.8344 11.838 9.66661 14.5035 9.66661C17.169 9.66661 19.3363 11.8344 19.3363 14.5005C19.3363 17.1666 17.1625 19.3344 14.5035 19.3344ZM23.9744 6.76111C23.9744 7.7253 23.198 8.49535 22.2405 8.49535C21.283 8.49535 20.5067 7.71883 20.5067 6.76111C20.5067 5.8034 21.283 5.02687 22.2405 5.02687C23.198 5.02687 23.9744 5.8034 23.9744 6.76111ZM28.8977 8.52124C28.7878 6.19813 28.2572 4.14034 26.5557 2.44492C24.8607 0.749509 22.8034 0.218236 20.4808 0.102404C18.087 -0.0341348 10.9129 -0.0341348 8.51913 0.102404C6.20301 0.212412 4.14568 0.743038 2.44417 2.43845C0.742668 4.13387 0.217983 6.19166 0.10153 8.51412C-0.0343316 10.9084 -0.0343316 18.0848 0.10153 20.4791C0.211513 22.8022 0.742021 24.86 2.44353 26.5554C4.14503 28.2508 6.1959 28.7814 8.51849 28.8979C10.9122 29.0338 18.087 29.0338 20.4808 28.8979C22.8034 28.7879 24.8607 28.2573 26.5557 26.5554C28.2508 24.86 28.7813 22.8022 28.8977 20.4791C29.0336 18.0848 29.0336 10.9149 28.8977 8.52059V8.52124ZM25.8053 23.0487C25.3006 24.3171 24.3237 25.2942 23.0492 25.8054C21.1407 26.5625 16.612 26.3878 14.5029 26.3878C12.3938 26.3878 7.85859 26.556 5.95652 25.8054C4.68848 25.3007 3.71157 24.3235 3.20047 23.0487C2.44353 21.1398 2.61821 16.61 2.61821 14.5005C2.61821 12.3909 2.45 7.85472 3.20047 5.95223C3.7051 4.68391 4.68201 3.70678 5.95652 3.19556C7.86506 2.43845 12.3938 2.61317 14.5029 2.61317C16.612 2.61317 21.1472 2.44492 23.0492 3.19556C24.3173 3.70031 25.2942 4.67744 25.8053 5.95223C26.5622 7.86119 26.3875 12.3909 26.3875 14.5005C26.3875 16.61 26.5622 21.1462 25.8053 23.0487Z" fill="#444444"></path></g><defs><clipPath id="clip0_37_5"><rect width="29" height="29" fill="white"></rect></clipPath></defs></svg> 