<?xml version="1.0" encoding="UTF-8"?> <svg xmlns="http://www.w3.org/2000/svg" width="221" height="116" viewBox="0 0 221 116" fill="none"><g id="Layer_1" clip-path="url(#clip0_41_1543)"><path id="Vector" d="M211.903 48.9951C211.771 43.5143 209.022 38.2785 204.301 35.8183C206.122 33.0603 207.899 30.2674 209.632 27.4569C211.408 31.0203 214.043 34.8639 214.043 39.9246C214.043 43.1378 213.283 46.2985 211.903 48.9864M207.342 54.4497C205.344 55.8944 202.975 56.7349 200.323 56.7349C196.778 56.7349 193.755 55.2902 191.881 52.8037C195.443 48.5136 198.962 43.6981 202.286 38.8214C206.157 40.9752 207.731 45.957 207.731 50.4573C207.731 51.8494 207.607 53.189 207.342 54.4497ZM190.139 49.0389C189.945 48.1896 189.848 47.2878 189.848 46.3422C189.848 41.5618 193.278 37.7182 197.813 37.7182C198.113 37.7182 198.414 37.727 198.688 37.7532C195.797 41.807 192.915 45.6506 190.139 49.0301M137.259 70.6297C135.703 70.6297 134.995 69.3776 134.995 67.0925C134.995 59.6942 141.634 44.1884 152.287 35.0741C153.462 37.0003 153.993 39.4605 154.01 42.0171C154.055 54.2396 142.757 70.6297 137.259 70.6297ZM95.0122 79.709C93.5094 79.709 92.7491 78.422 92.7491 76.2331C92.7491 66.681 109.13 35.433 117.369 35.433C118.924 35.433 119.632 36.7201 119.632 38.9615C119.632 48.6099 103.348 79.709 95.0122 79.709ZM71.1265 47.0689C69.1198 44.9151 66.9275 43.164 64.6644 41.807C70.269 30.3987 76.4835 19.6121 84.2716 11.3995C86.9147 14.1049 88.3468 17.7997 88.3468 22.2124C88.3468 33.1917 81.0361 42.8313 71.1265 47.0689ZM40.1246 100.127C37.9588 100.127 35.9875 99.8376 34.2195 99.3298C43.9258 88.5169 51.1569 71.1988 59.051 53.8106C62.366 53.9156 65.5573 53.5129 68.3861 53.0138C69.9596 56.3146 70.932 60.3509 70.932 65.1488C70.932 80.8559 59.2632 100.127 40.1246 100.127ZM27.2005 95.4599C24.0889 92.5619 22.5507 88.8233 22.586 85.7152C22.6126 84.1655 23.028 82.7383 23.6999 81.4951C24.6988 83.6664 27.1298 85.3037 30.0735 85.3037C31.1785 85.3037 32.2747 85.0848 33.3001 84.6645C31.3023 88.7008 29.2956 92.3518 27.2005 95.4512M48.116 43.8032C48.116 41.6931 50.6884 41.3254 53.4288 41.6494C52.4387 43.4705 51.484 45.3004 50.5558 47.1477C49 46.1934 48.116 45.0114 48.116 43.8032ZM62.7727 45.7556C63.86 46.6574 64.8589 47.6556 65.7429 48.7587C64.2136 49.0827 62.6578 49.2753 61.1019 49.3278C61.6588 48.1371 62.2069 46.9376 62.7727 45.7556ZM211.585 24.5939C213.442 22.4926 214.591 19.8747 214.591 17.9486C214.591 16.6353 213.822 15.8035 212.584 15.8035C210.524 15.8035 208.049 18.3163 208.049 22.1074C208.049 22.6414 208.12 23.1668 208.217 23.6921C205.857 27.3518 203.408 31.0554 200.915 34.6276C200.031 34.4524 199.13 34.3649 198.237 34.3649C192.261 34.3649 186.1 38.8039 186.1 46.8326C186.1 49.0126 186.488 50.9301 187.143 52.5848C182.024 58.3634 177.525 62.1019 174.475 62.1019C173.273 62.1019 172.548 61.4628 172.548 60.1145C172.548 58.6698 173.255 56.3847 174.669 53.2065L192.243 14.6478L211.223 12.4327L213.38 7.97618L195.019 8.57155L198.201 1.59351L191.085 2.47781L187.85 8.79919L162.161 9.62219L157.537 18.7015L184.402 15.5671L179.001 26.1786C176.234 24.9529 172.893 24.2524 168.994 24.2524C163.116 24.2524 157.652 25.6971 152.737 28.1398C150.51 27.0629 147.999 26.5463 145.436 26.5463C139.23 26.5463 132.211 29.4969 126.491 34.6801C125.333 31.1517 122.92 29.0329 119.331 29.0329C115.159 29.0329 110.721 31.2042 106.478 34.7151C103.941 32.6576 100.263 32.0622 96.4 33.5156C98.4774 29.6633 99.6266 25.5745 99.6266 21.4945C99.6266 14.3851 96.2586 9.15816 90.1148 5.99747C92.2187 4.30768 94.4287 2.793 96.7802 1.4972C95.9138 0.823039 95.3746 0.402781 94.6497 0.00878906C91.6441 1.21703 88.7446 2.66167 85.9777 4.33395C82.1058 3.10819 77.4913 2.48656 72.205 2.48656C47.6828 2.48656 24.4867 16.5039 24.4867 33.8221C24.4867 41.4655 28.8536 44.1972 33.1675 44.1972C37.1986 44.1972 41.1412 41.9558 42.3965 39.2416C38.887 38.5237 36.8008 35.5118 36.8008 31.6945C36.8008 18.2112 53.305 6.40897 70.2336 6.40897C74.026 6.40897 77.3056 7.1094 80.0018 8.39644C69.7209 16.2325 61.8268 26.9053 55.3117 38.3136C54.4012 38.1735 53.4907 38.1034 52.5713 38.1034C47.7005 38.1034 44.191 40.1785 44.191 44.1797C44.191 46.8938 45.9855 49.2315 48.7082 50.9213C44.6949 59.2214 41.1589 67.539 37.7732 75.1037C36.5974 72.8098 33.9278 71.3038 30.8249 71.3038C23.364 71.3038 17.7682 77.8091 17.7682 85.8465C17.7682 91.0997 19.9164 96.1166 23.6203 100.127C20.1197 103.996 16.3008 106.299 11.8189 106.404C10.3692 106.448 8.92825 106.089 7.67297 105.371C11.1736 104.995 14.0466 102.42 13.9582 99.0759C13.8698 95.7313 11.0587 93.3586 7.19561 93.4374C2.47505 93.525 -0.0797094 97.4474 -0.000149395 100.879C0.141291 107.245 5.59557 110.572 12.7029 110.414C18.8467 110.274 24.1242 108.103 28.8271 104.443C33.2913 107.28 38.8693 109.004 45.1104 109.004C63.9661 109.004 79.9753 93.0872 79.9753 71.7328C79.9753 63.2401 77.7653 56.5248 74.468 51.3766C80.5941 49.2403 85.9688 45.8344 90.1502 41.7282C96.0199 35.9671 100.387 36.5012 102.862 38.0597C93.1292 48.0671 85.2351 64.2032 85.2351 75.0599C85.2351 81.7753 87.9402 86.1529 93.1558 86.1529C108.811 86.1529 127.499 56.2533 127.278 39.8283C132.308 34.3124 139.027 31.0203 144.49 31.0203C145.524 31.0203 146.461 31.1429 147.318 31.3706C135.084 39.9333 127.464 54.5811 127.464 65.8492C127.464 71.8291 130.425 76.3557 136.198 76.3557C146.974 76.3557 161.012 59.738 161.012 43.1553C161.012 38.0684 159.553 34.2336 157.237 31.5457C161.003 29.3305 165.14 27.9822 169.578 27.9822C172.15 27.9822 174.846 28.5776 177.26 29.6282L166.475 50.8162C163.964 55.9819 162.983 59.8168 162.983 62.5922C162.983 66.8824 165.511 69.0712 169.533 69.0712C175.377 69.0712 182.281 63.6867 189.158 55.9907C192.128 59.6329 196.761 61.2702 200.597 61.2702C201.808 61.2702 203.063 61.1476 204.328 60.9287C201.428 64.5534 196.61 67.2764 189.538 69.0274L95.8873 92.2204C81.6638 95.7313 72.9652 102.692 77.1642 116.009C80.4085 113.365 86.2606 110.782 101.359 106.22L186.374 80.5495C198.811 76.7847 206.697 67.9593 210.065 59.0463C215.864 56.2708 221.009 50.9476 221.009 43.5493C221.009 35.3893 214.105 30.5213 211.594 24.5939" fill="#1E1C59"></path></g><defs><clipPath id="clip0_41_1543"><rect width="221" height="116" fill="white"></rect></clipPath></defs></svg> 